<svg width="48" height="46" viewBox="0 0 48 46" fill="none" xmlns="http://www.w3.org/2000/svg">
<path d="M8.94071 23.0637C8.94071 19.5588 10.0495 16.1437 12.1083 13.3073C14.1672 10.4709 17.0706 8.35849 20.403 7.27245C23.7353 6.18642 27.3259 6.18242 30.6606 7.26103C33.9954 8.33964 36.9035 10.4456 38.9687 13.2774C41.0339 16.1092 42.1502 19.5218 42.158 23.0267C42.1658 26.5316 41.0647 29.9491 39.0121 32.7901C36.9596 35.6311 34.0609 37.7499 30.731 38.8434C27.401 39.9369 23.8105 39.9488 20.4734 38.8777" stroke="#041C1F" stroke-width="4" stroke-linecap="round" stroke-linejoin="round"/>
<path d="M24.7189 14.1621V24.1273L31.3624 30.7708" stroke="#041C1F" stroke-width="3" stroke-linecap="round"/>
<path d="M11.418 29.9008C11.1143 30.5906 10.1838 30.7034 9.73334 30.1049L3.93513 22.4016C3.47961 21.7964 3.8556 20.9199 4.6099 20.8285L14.3174 19.6525C15.0717 19.5611 15.6344 20.3239 15.3273 21.0215L11.418 29.9008Z" fill="#041C1F"/>
<g filter="url(#filter0_f_185_7770)">
<path d="M8.94071 23.0637C8.94071 19.5588 10.0495 16.1437 12.1083 13.3073C14.1672 10.4709 17.0706 8.35849 20.403 7.27245C23.7353 6.18642 27.3259 6.18242 30.6606 7.26103C33.9954 8.33964 36.9035 10.4456 38.9687 13.2774C41.0339 16.1092 42.1502 19.5218 42.158 23.0267C42.1658 26.5316 41.0647 29.9491 39.0121 32.7901C36.9596 35.6311 34.0609 37.7499 30.731 38.8434C27.401 39.9369 23.8105 39.9488 20.4734 38.8777" stroke="#008F66" stroke-width="4" stroke-linecap="round" stroke-linejoin="round"/>
<path d="M24.7189 14.1621V24.1273L31.3624 30.7708" stroke="#008F66" stroke-width="3" stroke-linecap="round"/>
<path d="M11.418 29.9008C11.1143 30.5906 10.1838 30.7034 9.73334 30.1049L3.93513 22.4016C3.47961 21.7964 3.8556 20.9199 4.6099 20.8285L14.3174 19.6525C15.0717 19.5611 15.6344 20.3239 15.3273 21.0215L11.418 29.9008Z" fill="#008F66"/>
</g>
<g filter="url(#filter1_f_185_7770)">
<path d="M8.94071 23.0637C8.94071 19.5588 10.0495 16.1437 12.1083 13.3073C14.1672 10.4709 17.0706 8.35849 20.403 7.27245C23.7353 6.18642 27.3259 6.18242 30.6606 7.26103C33.9954 8.33964 36.9035 10.4456 38.9687 13.2774C41.0339 16.1092 42.1502 19.5218 42.158 23.0267C42.1658 26.5316 41.0647 29.9491 39.0121 32.7901C36.9596 35.6311 34.0609 37.7499 30.731 38.8434C27.401 39.9369 23.8105 39.9488 20.4734 38.8777" stroke="#008F66" stroke-width="4" stroke-linecap="round" stroke-linejoin="round"/>
<path d="M24.7189 14.1621V24.1273L31.3624 30.7708" stroke="#008F66" stroke-width="3" stroke-linecap="round"/>
<path d="M11.418 29.9008C11.1143 30.5906 10.1838 30.7034 9.73334 30.1049L3.93513 22.4016C3.47961 21.7964 3.8556 20.9199 4.6099 20.8285L14.3174 19.6525C15.0717 19.5611 15.6344 20.3239 15.3273 21.0215L11.418 29.9008Z" fill="#008F66"/>
</g>
<g filter="url(#filter2_f_185_7770)">
<path d="M8.94071 23.0642C8.94071 19.5593 10.0495 16.1442 12.1083 13.3078C14.1672 10.4714 17.0706 8.35898 20.403 7.27294C23.7353 6.18691 27.3259 6.18291 30.6606 7.26152C33.9954 8.34013 36.9035 10.4461 38.9687 13.2779C41.0339 16.1097 42.1502 19.5223 42.158 23.0272C42.1658 26.532 41.0647 29.9496 39.0121 32.7906C36.9596 35.6316 34.0609 37.7504 30.731 38.8439C27.401 39.9373 23.8105 39.9493 20.4734 38.8782" stroke="#008F66" stroke-linecap="round" stroke-linejoin="round"/>
<path d="M24.7189 14.1626V24.1278L31.3624 30.7713" stroke="#008F66" stroke-linecap="round"/>
<path d="M11.2984 28.7077C10.9911 29.3859 10.0756 29.4968 9.62431 28.9105L5.00681 22.9112C4.54198 22.3073 4.91628 21.4218 5.67524 21.3298L13.4364 20.3896C14.1953 20.2976 14.7584 21.0696 14.442 21.7682L11.2984 28.7077Z" fill="#008F66"/>
</g>
<g filter="url(#filter3_f_185_7770)">
<path d="M8.94071 23.0637C8.94071 19.5588 10.0495 16.1437 12.1083 13.3073C14.1672 10.4709 17.0706 8.35849 20.403 7.27245C23.7353 6.18642 27.3259 6.18242 30.6606 7.26103C33.9954 8.33964 36.9035 10.4456 38.9687 13.2774C41.0339 16.1092 42.1502 19.5218 42.158 23.0267C42.1658 26.5316 41.0647 29.9491 39.0121 32.7901C36.9596 35.6311 34.0609 37.7499 30.731 38.8434C27.401 39.9369 23.8105 39.9488 20.4734 38.8777" stroke="#00D194" stroke-linecap="round" stroke-linejoin="round"/>
<path d="M24.7189 14.1621V24.1273L31.3624 30.7708" stroke="#00D194" stroke-linecap="round"/>
<path d="M11.2984 28.7072C10.9911 29.3854 10.0756 29.4963 9.62431 28.91L5.00681 22.9108C4.54198 22.3068 4.91628 21.4213 5.67524 21.3293L13.4364 20.3891C14.1953 20.2971 14.7584 21.0691 14.442 21.7677L11.2984 28.7072Z" fill="#00D194"/>
</g>
<defs>
<filter id="filter0_f_185_7770" x="0.137427" y="0.855078" width="47.6207" height="44.4173" filterUnits="userSpaceOnUse" color-interpolation-filters="sRGB">
<feFlood flood-opacity="0" result="BackgroundImageFix"/>
<feBlend mode="normal" in="SourceGraphic" in2="BackgroundImageFix" result="shape"/>
<feGaussianBlur stdDeviation="1.8" result="effect1_foregroundBlur_185_7770"/>
</filter>
<filter id="filter1_f_185_7770" x="0.137427" y="0.855078" width="47.6207" height="44.4173" filterUnits="userSpaceOnUse" color-interpolation-filters="sRGB">
<feFlood flood-opacity="0" result="BackgroundImageFix"/>
<feBlend mode="normal" in="SourceGraphic" in2="BackgroundImageFix" result="shape"/>
<feGaussianBlur stdDeviation="1.8" result="effect1_foregroundBlur_185_7770"/>
</filter>
<filter id="filter2_f_185_7770" x="1.90273" y="3.05557" width="43.6553" height="40.0173" filterUnits="userSpaceOnUse" color-interpolation-filters="sRGB">
<feFlood flood-opacity="0" result="BackgroundImageFix"/>
<feBlend mode="normal" in="SourceGraphic" in2="BackgroundImageFix" result="shape"/>
<feGaussianBlur stdDeviation="1.45" result="effect1_foregroundBlur_185_7770"/>
</filter>
<filter id="filter3_f_185_7770" x="3.90273" y="5.05508" width="39.6553" height="36.0173" filterUnits="userSpaceOnUse" color-interpolation-filters="sRGB">
<feFlood flood-opacity="0" result="BackgroundImageFix"/>
<feBlend mode="normal" in="SourceGraphic" in2="BackgroundImageFix" result="shape"/>
<feGaussianBlur stdDeviation="0.45" result="effect1_foregroundBlur_185_7770"/>
</filter>
</defs>
</svg>
