<svg width="45" height="41" viewBox="0 0 45 41" fill="none" xmlns="http://www.w3.org/2000/svg">
<path fill-rule="evenodd" clip-rule="evenodd" d="M15.3175 9.91072C15.5697 9.47659 16.0016 8.96563 16.6938 8.4647C17.9279 7.57161 19.859 6.8302 22.5 6.83008C27.0906 6.82987 29.0694 8.63853 29.7216 9.91072H15.3175ZM12.116 9.91072C12.4379 8.46599 13.4981 7.07417 14.935 6.03434C16.7319 4.73397 19.2936 3.83022 22.4999 3.83008C28.6139 3.8298 32.2934 6.81505 32.8973 9.91072H36.8857C39.0948 9.91072 40.8857 11.7016 40.8857 13.9107V32.943C40.8857 35.1521 39.0948 36.943 36.8857 36.943H8.11426C5.90511 36.943 4.11426 35.1521 4.11426 32.943V13.9107C4.11426 11.7016 5.90512 9.91072 8.11426 9.91072H12.116ZM36.8857 13.9107L8.11426 13.9107V32.943L36.8857 32.943L36.8857 13.9107ZM30.0142 22.4892C30.884 22.8118 30.884 24.042 30.0142 24.3645L17.2405 29.101C16.5873 29.3433 15.8928 28.8601 15.8928 28.1634L15.8928 18.6903C15.8928 17.9936 16.5873 17.5104 17.2405 17.7527L30.0142 22.4892Z" fill="#041C1F"/>
<g filter="url(#filter0_f_185_7718)">
<path fill-rule="evenodd" clip-rule="evenodd" d="M15.3175 9.91072C15.5697 9.47659 16.0016 8.96563 16.6938 8.4647C17.9279 7.57161 19.859 6.8302 22.5 6.83008C27.0906 6.82987 29.0694 8.63853 29.7216 9.91072H15.3175ZM12.116 9.91072C12.4379 8.46599 13.4981 7.07417 14.935 6.03434C16.7319 4.73397 19.2936 3.83022 22.4999 3.83008C28.6139 3.8298 32.2934 6.81505 32.8973 9.91072H36.8857C39.0948 9.91072 40.8857 11.7016 40.8857 13.9107V32.943C40.8857 35.1521 39.0948 36.943 36.8857 36.943H8.11426C5.90511 36.943 4.11426 35.1521 4.11426 32.943V13.9107C4.11426 11.7016 5.90512 9.91072 8.11426 9.91072H12.116ZM36.8857 13.9107L8.11426 13.9107V32.943L36.8857 32.943L36.8857 13.9107ZM30.0142 22.4892C30.884 22.8118 30.884 24.042 30.0142 24.3645L17.2405 29.101C16.5873 29.3433 15.8928 28.8601 15.8928 28.1634L15.8928 18.6903C15.8928 17.9936 16.5873 17.5104 17.2405 17.7527L30.0142 22.4892Z" fill="#008F66"/>
</g>
<g filter="url(#filter1_f_185_7718)">
<path fill-rule="evenodd" clip-rule="evenodd" d="M15.3175 9.91072C15.5697 9.47659 16.0016 8.96563 16.6938 8.4647C17.9279 7.57161 19.859 6.8302 22.5 6.83008C27.0906 6.82987 29.0694 8.63853 29.7216 9.91072H15.3175ZM12.116 9.91072C12.4379 8.46599 13.4981 7.07417 14.935 6.03434C16.7319 4.73397 19.2936 3.83022 22.4999 3.83008C28.6139 3.8298 32.2934 6.81505 32.8973 9.91072H36.8857C39.0948 9.91072 40.8857 11.7016 40.8857 13.9107V32.943C40.8857 35.1521 39.0948 36.943 36.8857 36.943H8.11426C5.90511 36.943 4.11426 35.1521 4.11426 32.943V13.9107C4.11426 11.7016 5.90512 9.91072 8.11426 9.91072H12.116ZM36.8857 13.9107L8.11426 13.9107V32.943L36.8857 32.943L36.8857 13.9107ZM30.0142 22.4892C30.884 22.8118 30.884 24.042 30.0142 24.3645L17.2405 29.101C16.5873 29.3433 15.8928 28.8601 15.8928 28.1634L15.8928 18.6903C15.8928 17.9936 16.5873 17.5104 17.2405 17.7527L30.0142 22.4892Z" fill="#008F66"/>
</g>
<g filter="url(#filter2_f_185_7718)">
<rect x="6.11426" y="11.9106" width="32.7714" height="23.0323" rx="2" stroke="#00AE7B" stroke-linejoin="round"/>
</g>
<g filter="url(#filter3_f_185_7718)">
<path d="M28.7613 22.482C29.6577 22.7929 29.6577 24.0607 28.7613 24.3716L17.7491 28.1905C17.0994 28.4158 16.4214 27.9333 16.4214 27.2457L16.4214 19.6079C16.4214 18.9203 17.0994 18.4378 17.7491 18.6631L28.7613 22.482Z" fill="#00AE7B"/>
</g>
<g filter="url(#filter4_f_185_7718)">
<path d="M13.5143 10.8139C13.5143 8.6204 16.6527 5.33034 22.5 5.33008C28.804 5.32979 31.4857 8.6204 31.4857 10.8139" stroke="#00AE7B" stroke-linecap="round"/>
</g>
<g filter="url(#filter5_f_185_7718)">
<rect x="6.11426" y="11.9106" width="32.7714" height="23.0323" rx="2" stroke="#00D194" stroke-linejoin="round"/>
</g>
<g filter="url(#filter6_f_185_7718)">
<path d="M28.7613 22.482C29.6577 22.7929 29.6577 24.0607 28.7613 24.3716L17.7491 28.1905C17.0994 28.4158 16.4214 27.9333 16.4214 27.2457L16.4214 19.6079C16.4214 18.9203 17.0994 18.4378 17.7491 18.6631L28.7613 22.482Z" fill="#00D194"/>
</g>
<g filter="url(#filter7_f_185_7718)">
<path d="M13.5143 10.8139C13.5143 8.6204 16.6527 5.33034 22.5 5.33008C28.804 5.32979 31.4857 8.6204 31.4857 10.8139" stroke="#00D194" stroke-linecap="round"/>
</g>
<defs>
<filter id="filter0_f_185_7718" x="0.514258" y="0.230078" width="43.9715" height="40.3128" filterUnits="userSpaceOnUse" color-interpolation-filters="sRGB">
<feFlood flood-opacity="0" result="BackgroundImageFix"/>
<feBlend mode="normal" in="SourceGraphic" in2="BackgroundImageFix" result="shape"/>
<feGaussianBlur stdDeviation="1.8" result="effect1_foregroundBlur_185_7718"/>
</filter>
<filter id="filter1_f_185_7718" x="0.514258" y="0.230078" width="43.9715" height="40.3128" filterUnits="userSpaceOnUse" color-interpolation-filters="sRGB">
<feFlood flood-opacity="0" result="BackgroundImageFix"/>
<feBlend mode="normal" in="SourceGraphic" in2="BackgroundImageFix" result="shape"/>
<feGaussianBlur stdDeviation="1.8" result="effect1_foregroundBlur_185_7718"/>
</filter>
<filter id="filter2_f_185_7718" x="2.71426" y="8.51064" width="39.5715" height="29.8322" filterUnits="userSpaceOnUse" color-interpolation-filters="sRGB">
<feFlood flood-opacity="0" result="BackgroundImageFix"/>
<feBlend mode="normal" in="SourceGraphic" in2="BackgroundImageFix" result="shape"/>
<feGaussianBlur stdDeviation="1.45" result="effect1_foregroundBlur_185_7718"/>
</filter>
<filter id="filter3_f_185_7718" x="13.5214" y="15.7069" width="18.8122" height="15.4396" filterUnits="userSpaceOnUse" color-interpolation-filters="sRGB">
<feFlood flood-opacity="0" result="BackgroundImageFix"/>
<feBlend mode="normal" in="SourceGraphic" in2="BackgroundImageFix" result="shape"/>
<feGaussianBlur stdDeviation="1.45" result="effect1_foregroundBlur_185_7718"/>
</filter>
<filter id="filter4_f_185_7718" x="10.1143" y="1.93008" width="24.7714" height="12.2839" filterUnits="userSpaceOnUse" color-interpolation-filters="sRGB">
<feFlood flood-opacity="0" result="BackgroundImageFix"/>
<feBlend mode="normal" in="SourceGraphic" in2="BackgroundImageFix" result="shape"/>
<feGaussianBlur stdDeviation="1.45" result="effect1_foregroundBlur_185_7718"/>
</filter>
<filter id="filter5_f_185_7718" x="4.71426" y="10.5106" width="35.5715" height="25.8322" filterUnits="userSpaceOnUse" color-interpolation-filters="sRGB">
<feFlood flood-opacity="0" result="BackgroundImageFix"/>
<feBlend mode="normal" in="SourceGraphic" in2="BackgroundImageFix" result="shape"/>
<feGaussianBlur stdDeviation="0.45" result="effect1_foregroundBlur_185_7718"/>
</filter>
<filter id="filter6_f_185_7718" x="15.5214" y="17.7069" width="14.8122" height="11.4396" filterUnits="userSpaceOnUse" color-interpolation-filters="sRGB">
<feFlood flood-opacity="0" result="BackgroundImageFix"/>
<feBlend mode="normal" in="SourceGraphic" in2="BackgroundImageFix" result="shape"/>
<feGaussianBlur stdDeviation="0.45" result="effect1_foregroundBlur_185_7718"/>
</filter>
<filter id="filter7_f_185_7718" x="12.1143" y="3.93008" width="20.7714" height="8.28389" filterUnits="userSpaceOnUse" color-interpolation-filters="sRGB">
<feFlood flood-opacity="0" result="BackgroundImageFix"/>
<feBlend mode="normal" in="SourceGraphic" in2="BackgroundImageFix" result="shape"/>
<feGaussianBlur stdDeviation="0.45" result="effect1_foregroundBlur_185_7718"/>
</filter>
</defs>
</svg>
