<svg width="39" height="38" viewBox="0 0 39 38" fill="none" xmlns="http://www.w3.org/2000/svg">
<g filter="url(#filter0_d_169_10993)">
<path fill-rule="evenodd" clip-rule="evenodd" d="M21.9503 11.0731L30.3416 8.30065C29.5724 3.60213 25.1634 0 19.8394 0C14.5369 0 10.142 3.57317 9.34666 8.24392L17.9096 11.0731L19.93 12.52V24.5189H19.9301V12.5313L21.9503 11.0731ZM25.5584 12.8131L30.4097 10.7287C30.3406 11.3785 30.2023 12.0096 30.0016 12.6157H30.018C30.018 12.6157 28.2478 18.72 26.9201 21.1617C25.5925 23.6034 25.15 23.6034 25.15 23.6034C24.7965 24.091 23.1727 24.3838 21.2932 24.482L22.7799 15.4992C22.7799 15.2664 22.8939 14.6611 23.3498 14.1024C23.8058 13.5437 25.0122 13.01 25.5584 12.8131ZM9.26086 10.6473L14.3016 12.8131C14.8478 13.01 16.0542 13.5437 16.5102 14.1024C16.9662 14.6611 17.0802 15.2664 17.0802 15.4992L18.5683 24.4909C16.6122 24.4025 14.8937 24.1067 14.5288 23.6034C14.5288 23.6034 14.0863 23.6034 12.7587 21.1617C11.431 18.72 9.66083 12.6157 9.66083 12.6157H9.6772C9.46815 11.9843 9.32678 11.3258 9.26086 10.6473ZM20.0792 8.15009C19.936 8.25372 19.7425 8.25372 19.5994 8.15009L16.2629 5.7346C15.9417 5.502 16.1062 4.99415 16.5028 4.99415H23.1757C23.5723 4.99415 23.7369 5.502 23.4156 5.73461L20.0792 8.15009Z" fill="#041C1F"/>
<path d="M3.5 34.9997C3.5 34.1745 3.5 29 10 27.5C10 27.5 13.5 28.9999 20 28.9999C26.5 28.9999 29 27.5 29 27.5C35.5 29 36 34.1745 36 34.9997" stroke="#041C1F" stroke-width="4" stroke-linecap="round" stroke-linejoin="round"/>
</g>
<defs>
<filter id="filter0_d_169_10993" x="0" y="0" width="39" height="39" filterUnits="userSpaceOnUse" color-interpolation-filters="sRGB">
<feFlood flood-opacity="0" result="BackgroundImageFix"/>
<feColorMatrix in="SourceAlpha" type="matrix" values="0 0 0 0 0 0 0 0 0 0 0 0 0 0 0 0 0 0 127 0" result="hardAlpha"/>
<feOffset dx="-1" dy="1"/>
<feComposite in2="hardAlpha" operator="out"/>
<feColorMatrix type="matrix" values="0 0 0 0 0.25098 0 0 0 0 0.592157 0 0 0 0 0.513726 0 0 0 1 0"/>
<feBlend mode="normal" in2="BackgroundImageFix" result="effect1_dropShadow_169_10993"/>
<feBlend mode="normal" in="SourceGraphic" in2="effect1_dropShadow_169_10993" result="shape"/>
</filter>
</defs>
</svg>
