<svg width="45" height="45" viewBox="0 0 45 45" fill="none" xmlns="http://www.w3.org/2000/svg">
<path fill-rule="evenodd" clip-rule="evenodd" d="M24.9503 14.995L33.3416 12.2225C32.5724 7.52401 28.1634 3.92188 22.8394 3.92188C17.5369 3.92188 13.142 7.49504 12.3467 12.1658L20.9096 14.995L22.93 16.4419V28.4408H22.9301V16.4531L24.9503 14.995ZM28.5584 16.7349L33.4097 14.6506C33.3406 15.3004 33.2023 15.9315 33.0016 16.5376H33.018C33.018 16.5376 31.2478 22.6419 29.9201 25.0836C28.5925 27.5253 28.15 27.5253 28.15 27.5253C27.7965 28.0128 26.1727 28.3057 24.2932 28.4038L25.7799 19.4211C25.7799 19.1883 25.8939 18.583 26.3498 18.0243C26.8058 17.4656 28.0122 16.9319 28.5584 16.7349ZM12.2609 14.5692L17.3016 16.7349C17.8478 16.9319 19.0542 17.4656 19.5102 18.0243C19.9662 18.583 20.0802 19.1883 20.0802 19.4211L21.5683 28.4127C19.6122 28.3244 17.8937 28.0286 17.5288 27.5253C17.5288 27.5253 17.0863 27.5253 15.7587 25.0836C14.431 22.6419 12.6608 16.5376 12.6608 16.5376H12.6772C12.4682 15.9062 12.3268 15.2477 12.2609 14.5692ZM23.0792 12.072C22.936 12.1756 22.7425 12.1756 22.5994 12.072L19.2629 9.65648C18.9417 9.42388 19.1062 8.91602 19.5028 8.91602H26.1757C26.5723 8.91602 26.7369 9.42388 26.4156 9.65648L23.0792 12.072Z" fill="#041C1F"/>
<path d="M6.5 38.9216C6.5 38.0964 6.5 32.9218 13 31.4219C13 31.4219 16.5 32.9218 23 32.9218C29.5 32.9217 32 31.4219 32 31.4219C38.5 32.9218 39 38.0964 39 38.9216" stroke="#041C1F" stroke-width="4" stroke-linecap="round" stroke-linejoin="round"/>
<g filter="url(#filter0_f_185_7794)">
<path fill-rule="evenodd" clip-rule="evenodd" d="M24.9503 14.995L33.3416 12.2225C32.5724 7.52401 28.1634 3.92188 22.8394 3.92188C17.5369 3.92188 13.142 7.49504 12.3467 12.1658L20.9096 14.995L22.93 16.4419V28.4408H22.9301V16.4531L24.9503 14.995ZM28.5584 16.7349L33.4097 14.6506C33.3406 15.3004 33.2023 15.9315 33.0016 16.5376H33.018C33.018 16.5376 31.2478 22.6419 29.9201 25.0836C28.5925 27.5253 28.15 27.5253 28.15 27.5253C27.7965 28.0128 26.1727 28.3057 24.2932 28.4038L25.7799 19.4211C25.7799 19.1883 25.8939 18.583 26.3498 18.0243C26.8058 17.4656 28.0122 16.9319 28.5584 16.7349ZM12.2609 14.5692L17.3016 16.7349C17.8478 16.9319 19.0542 17.4656 19.5102 18.0243C19.9662 18.583 20.0802 19.1883 20.0802 19.4211L21.5683 28.4127C19.6122 28.3244 17.8937 28.0286 17.5288 27.5253C17.5288 27.5253 17.0863 27.5253 15.7587 25.0836C14.431 22.6419 12.6608 16.5376 12.6608 16.5376H12.6772C12.4682 15.9062 12.3268 15.2477 12.2609 14.5692ZM23.0792 12.072C22.936 12.1756 22.7425 12.1756 22.5994 12.072L19.2629 9.65648C18.9417 9.42388 19.1062 8.91602 19.5028 8.91602H26.1757C26.5723 8.91602 26.7369 9.42388 26.4156 9.65648L23.0792 12.072Z" fill="#008F66"/>
<path d="M6.5 38.9216C6.5 38.0964 6.5 32.9218 13 31.4219C13 31.4219 16.5 32.9218 23 32.9218C29.5 32.9217 32 31.4219 32 31.4219C38.5 32.9218 39 38.0964 39 38.9216" stroke="#008F66" stroke-width="4" stroke-linecap="round" stroke-linejoin="round"/>
</g>
<g filter="url(#filter1_f_185_7794)">
<path fill-rule="evenodd" clip-rule="evenodd" d="M24.9503 14.995L33.3416 12.2225C32.5724 7.52401 28.1634 3.92188 22.8394 3.92188C17.5369 3.92188 13.142 7.49504 12.3467 12.1658L20.9096 14.995L22.93 16.4419V28.4408H22.9301V16.4531L24.9503 14.995ZM28.5584 16.7349L33.4097 14.6506C33.3406 15.3004 33.2023 15.9315 33.0016 16.5376H33.018C33.018 16.5376 31.2478 22.6419 29.9201 25.0836C28.5925 27.5253 28.15 27.5253 28.15 27.5253C27.7965 28.0128 26.1727 28.3057 24.2932 28.4038L25.7799 19.4211C25.7799 19.1883 25.8939 18.583 26.3498 18.0243C26.8058 17.4656 28.0122 16.9319 28.5584 16.7349ZM12.2609 14.5692L17.3016 16.7349C17.8478 16.9319 19.0542 17.4656 19.5102 18.0243C19.9662 18.583 20.0802 19.1883 20.0802 19.4211L21.5683 28.4127C19.6122 28.3244 17.8937 28.0286 17.5288 27.5253C17.5288 27.5253 17.0863 27.5253 15.7587 25.0836C14.431 22.6419 12.6608 16.5376 12.6608 16.5376H12.6772C12.4682 15.9062 12.3268 15.2477 12.2609 14.5692ZM23.0792 12.072C22.936 12.1756 22.7425 12.1756 22.5994 12.072L19.2629 9.65648C18.9417 9.42388 19.1062 8.91602 19.5028 8.91602H26.1757C26.5723 8.91602 26.7369 9.42388 26.4156 9.65648L23.0792 12.072Z" fill="#008F66"/>
<path d="M6.5 38.9216C6.5 38.0964 6.5 32.9218 13 31.4219C13 31.4219 16.5 32.9218 23 32.9218C29.5 32.9217 32 31.4219 32 31.4219C38.5 32.9218 39 38.0964 39 38.9216" stroke="#008F66" stroke-width="4" stroke-linecap="round" stroke-linejoin="round"/>
</g>
<g filter="url(#filter2_f_185_7794)">
<path fill-rule="evenodd" clip-rule="evenodd" d="M24.6501 15.0681L32.1888 12.4674C31.4977 8.06006 27.5367 4.68115 22.7537 4.68115C17.99 4.68115 14.0417 8.03289 13.3271 12.4142L21.02 15.0681L22.8351 16.4254V27.681H22.8352V16.436L24.6501 15.0681ZM27.8916 16.7003L32.25 14.7451C32.188 15.3546 32.0637 15.9466 31.8834 16.5151H31.8981C31.8981 16.5151 30.3077 22.2413 29.115 24.5317C27.9222 26.8222 27.5247 26.8222 27.5247 26.8222C27.2071 27.2795 25.7483 27.5542 24.0598 27.6463L25.3954 19.22C25.3954 19.0017 25.4978 18.4339 25.9074 17.9098C26.3171 17.3857 27.4009 16.8851 27.8916 16.7003ZM13.25 14.6687L17.7786 16.7003C18.2693 16.8851 19.3532 17.3857 19.7628 17.9098C20.1724 18.4339 20.2748 19.0017 20.2748 19.22L21.6118 27.6546C19.8544 27.5718 18.3105 27.2943 17.9827 26.8222C17.9827 26.8222 17.5851 26.8222 16.3924 24.5317C15.1996 22.2413 13.6093 16.5151 13.6093 16.5151H13.624C13.4362 15.9229 13.3092 15.3052 13.25 14.6687ZM23.0002 12.3025C22.8543 12.4129 22.6528 12.4129 22.5069 12.3025L19.5946 10.1011C19.2817 9.8645 19.449 9.36567 19.8413 9.36567H25.6658C26.0581 9.36567 26.2254 9.8645 25.9125 10.1011L23.0002 12.3025Z" fill="#00AE7B"/>
<path d="M6.5 38.9216C6.5 38.0964 6.5 32.9218 13 31.4219C13 31.4219 16.5 32.9218 23 32.9218C29.5 32.9217 32 31.4219 32 31.4219C38.5 32.9218 39 38.0964 39 38.9216" stroke="#00AE7B" stroke-linecap="round" stroke-linejoin="round"/>
</g>
<g filter="url(#filter3_f_185_7794)">
<path fill-rule="evenodd" clip-rule="evenodd" d="M24.6501 15.0686L32.1888 12.4679C31.4977 8.06054 27.5367 4.68164 22.7537 4.68164C17.99 4.68164 14.0417 8.03338 13.3271 12.4147L21.02 15.0686L22.8351 16.4259V27.6815H22.8352V16.4364L24.6501 15.0686ZM27.8916 16.7008L32.25 14.7456C32.188 15.3551 32.0637 15.9471 31.8834 16.5156H31.8981C31.8981 16.5156 30.3077 22.2418 29.115 24.5322C27.9222 26.8227 27.5247 26.8227 27.5247 26.8227C27.2071 27.28 25.7483 27.5547 24.0598 27.6468L25.3954 19.2205C25.3954 19.0021 25.4978 18.4344 25.9074 17.9103C26.3171 17.3861 27.4009 16.8856 27.8916 16.7008ZM13.25 14.6692L17.7786 16.7008C18.2693 16.8856 19.3532 17.3861 19.7628 17.9103C20.1724 18.4344 20.2748 19.0021 20.2748 19.2205L21.6118 27.6551C19.8544 27.5722 18.3105 27.2948 17.9827 26.8227C17.9827 26.8227 17.5851 26.8227 16.3924 24.5322C15.1996 22.2418 13.6093 16.5156 13.6093 16.5156H13.624C13.4362 15.9234 13.3092 15.3056 13.25 14.6692ZM23.0002 12.303C22.8543 12.4134 22.6528 12.4134 22.5069 12.303L19.5946 10.1016C19.2817 9.86499 19.449 9.36616 19.8413 9.36616H25.6658C26.0581 9.36616 26.2254 9.86499 25.9125 10.1016L23.0002 12.303Z" fill="#00D194"/>
<path d="M6.5 38.9221C6.5 38.0969 6.5 32.9223 13 31.4224C13 31.4224 16.5 32.9223 23 32.9223C29.5 32.9222 32 31.4224 32 31.4224C38.5 32.9223 39 38.0969 39 38.9221" stroke="#00D194" stroke-linecap="round" stroke-linejoin="round"/>
</g>
<defs>
<filter id="filter0_f_185_7794" x="0.9" y="0.321875" width="43.7" height="44.1995" filterUnits="userSpaceOnUse" color-interpolation-filters="sRGB">
<feFlood flood-opacity="0" result="BackgroundImageFix"/>
<feBlend mode="normal" in="SourceGraphic" in2="BackgroundImageFix" result="shape"/>
<feGaussianBlur stdDeviation="1.8" result="effect1_foregroundBlur_185_7794"/>
</filter>
<filter id="filter1_f_185_7794" x="0.9" y="0.321875" width="43.7" height="44.1995" filterUnits="userSpaceOnUse" color-interpolation-filters="sRGB">
<feFlood flood-opacity="0" result="BackgroundImageFix"/>
<feBlend mode="normal" in="SourceGraphic" in2="BackgroundImageFix" result="shape"/>
<feGaussianBlur stdDeviation="1.8" result="effect1_foregroundBlur_185_7794"/>
</filter>
<filter id="filter2_f_185_7794" x="3.1" y="1.78115" width="39.3" height="40.5402" filterUnits="userSpaceOnUse" color-interpolation-filters="sRGB">
<feFlood flood-opacity="0" result="BackgroundImageFix"/>
<feBlend mode="normal" in="SourceGraphic" in2="BackgroundImageFix" result="shape"/>
<feGaussianBlur stdDeviation="1.45" result="effect1_foregroundBlur_185_7794"/>
</filter>
<filter id="filter3_f_185_7794" x="5.1" y="3.78164" width="35.3" height="36.5402" filterUnits="userSpaceOnUse" color-interpolation-filters="sRGB">
<feFlood flood-opacity="0" result="BackgroundImageFix"/>
<feBlend mode="normal" in="SourceGraphic" in2="BackgroundImageFix" result="shape"/>
<feGaussianBlur stdDeviation="0.45" result="effect1_foregroundBlur_185_7794"/>
</filter>
</defs>
</svg>
