<svg width="615" height="155" viewBox="0 0 615 155" fill="none" xmlns="http://www.w3.org/2000/svg">
<path fill-rule="evenodd" clip-rule="evenodd" d="M105.569 13.5H518.569V13.5158C522.727 13.6733 526.761 15.0073 530.199 17.3711L594.199 61.3711C606.914 70.1128 606.914 88.8872 594.199 97.6289L530.199 141.629C526.761 143.993 522.727 145.327 518.569 145.484V145.5H517.736H450.569H164.569H105.569H97.931C93.4623 145.5 89.0995 144.139 85.4232 141.598L21.7566 97.5985C9.10033 88.8518 9.10031 70.1483 21.7565 61.4016L85.4232 17.4016C89.0994 14.8609 93.4623 13.5 97.931 13.5L105.569 13.5Z" fill="url(#paint0_radial_3_3)"/>
<path fill-rule="evenodd" clip-rule="evenodd" d="M105.569 13.5H518.569V13.5158C522.727 13.6733 526.761 15.0073 530.199 17.3711L594.199 61.3711C606.914 70.1128 606.914 88.8872 594.199 97.6289L530.199 141.629C526.761 143.993 522.727 145.327 518.569 145.484V145.5H517.736H450.569H164.569H105.569H97.931C93.4623 145.5 89.0995 144.139 85.4232 141.598L21.7566 97.5985C9.10033 88.8518 9.10031 70.1483 21.7565 61.4016L85.4232 17.4016C89.0994 14.8609 93.4623 13.5 97.931 13.5L105.569 13.5Z" fill="url(#paint1_radial_3_3)"/>
<g opacity="0.8" filter="url(#filter0_f_3_3)">
<path fill-rule="evenodd" clip-rule="evenodd" d="M105.124 11.5H517.945V11.516C522.103 11.6746 526.137 13.0098 529.575 15.3745L593.552 59.3848C606.261 68.127 606.261 86.8935 593.552 95.6358L529.575 139.646C526.137 142.011 522.103 143.346 517.945 143.505V143.52H517.132C517.124 143.52 517.115 143.521 517.106 143.521H449.984C449.975 143.521 449.967 143.52 449.958 143.52H164.115L164.089 143.521L105.124 143.52L97.4958 143.521C93.025 143.521 88.6602 142.158 84.983 139.616L21.3389 95.6053C8.68935 86.858 8.68935 68.1625 21.3389 59.4153L84.983 15.405C88.6602 12.8622 93.025 11.5 97.4958 11.5L105.124 11.5Z" fill="url(#paint2_radial_3_3)"/>
<path fill-rule="evenodd" clip-rule="evenodd" d="M105.124 11.5H517.945V11.516C522.103 11.6746 526.137 13.0098 529.575 15.3745L593.552 59.3848C606.261 68.127 606.261 86.8935 593.552 95.6358L529.575 139.646C526.137 142.011 522.103 143.346 517.945 143.505V143.52H517.132C517.124 143.52 517.115 143.521 517.106 143.521H449.984C449.975 143.521 449.967 143.52 449.958 143.52H164.115L164.089 143.521L105.124 143.52L97.4958 143.521C93.025 143.521 88.6602 142.158 84.983 139.616L21.3389 95.6053C8.68935 86.858 8.68935 68.1625 21.3389 59.4153L84.983 15.405C88.6602 12.8622 93.025 11.5 97.4958 11.5L105.124 11.5Z" fill="url(#paint3_radial_3_3)"/>
</g>
<g opacity="0.3" filter="url(#filter1_f_3_3)">
<path fill-rule="evenodd" clip-rule="evenodd" d="M105.124 11.5H517.945V11.516C522.103 11.6746 526.137 13.0098 529.575 15.3745L593.552 59.3848C606.261 68.127 606.261 86.8935 593.552 95.6358L529.575 139.646C526.137 142.011 522.103 143.346 517.945 143.505V143.52H517.132C517.124 143.52 517.115 143.521 517.106 143.521H449.984C449.975 143.521 449.967 143.52 449.958 143.52H164.115L164.089 143.521L105.124 143.52L97.4958 143.521C93.025 143.521 88.6602 142.158 84.983 139.616L21.3389 95.6053C8.68935 86.858 8.68935 68.1625 21.3389 59.4153L84.983 15.405C88.6602 12.8622 93.025 11.5 97.4958 11.5L105.124 11.5Z" fill="url(#paint4_radial_3_3)"/>
<path fill-rule="evenodd" clip-rule="evenodd" d="M105.124 11.5H517.945V11.516C522.103 11.6746 526.137 13.0098 529.575 15.3745L593.552 59.3848C606.261 68.127 606.261 86.8935 593.552 95.6358L529.575 139.646C526.137 142.011 522.103 143.346 517.945 143.505V143.52H517.132C517.124 143.52 517.115 143.521 517.106 143.521H449.984C449.975 143.521 449.967 143.52 449.958 143.52H164.115L164.089 143.521L105.124 143.52L97.4958 143.521C93.025 143.521 88.6602 142.158 84.983 139.616L21.3389 95.6053C8.68935 86.858 8.68935 68.1625 21.3389 59.4153L84.983 15.405C88.6602 12.8622 93.025 11.5 97.4958 11.5L105.124 11.5Z" fill="url(#paint5_radial_3_3)"/>
</g>
<mask id="mask0_3_3" style="mask-type:alpha" maskUnits="userSpaceOnUse" x="12" y="12" width="592" height="133">
<path fill-rule="evenodd" clip-rule="evenodd" d="M105.304 12.5H518.304V12.5158C522.462 12.6733 526.497 14.0073 529.935 16.3711L593.935 60.3711C606.65 69.1128 606.65 87.8872 593.935 96.6289L529.935 140.629C526.497 142.993 522.462 144.327 518.304 144.484V144.5H517.471H450.304H164.304H105.304H97.6667C93.1979 144.5 88.8351 143.139 85.1588 140.598L21.4922 96.5985C8.83595 87.8518 8.83594 69.1483 21.4922 60.4016L85.1588 16.4016C88.8351 13.8609 93.1979 12.5 97.6666 12.5L105.304 12.5Z" fill="#04A38F"/>
</mask>
<g mask="url(#mask0_3_3)">
<g opacity="0.7" filter="url(#filter2_f_3_3)">
<ellipse cx="307.5" cy="123" rx="209.5" ry="64.5" fill="#037D88"/>
</g>
<g opacity="0.7" filter="url(#filter3_f_3_3)">
<ellipse cx="307.5" cy="142.5" rx="192.5" ry="60" fill="#00D194"/>
</g>
<g opacity="0.7" filter="url(#filter4_f_3_3)">
<ellipse cx="307.5" cy="152.5" rx="109.5" ry="31" fill="#B3FFE9"/>
</g>
</g>
<defs>
<filter id="filter0_f_3_3" x="0.651746" y="0.3" width="613.632" height="154.421" filterUnits="userSpaceOnUse" color-interpolation-filters="sRGB">
<feFlood flood-opacity="0" result="BackgroundImageFix"/>
<feBlend mode="normal" in="SourceGraphic" in2="BackgroundImageFix" result="shape"/>
<feGaussianBlur stdDeviation="5.6" result="effect1_foregroundBlur_3_3"/>
</filter>
<filter id="filter1_f_3_3" x="7.95175" y="7.6" width="599.032" height="139.821" filterUnits="userSpaceOnUse" color-interpolation-filters="sRGB">
<feFlood flood-opacity="0" result="BackgroundImageFix"/>
<feBlend mode="normal" in="SourceGraphic" in2="BackgroundImageFix" result="shape"/>
<feGaussianBlur stdDeviation="1.95" result="effect1_foregroundBlur_3_3"/>
</filter>
<filter id="filter2_f_3_3" x="46.1" y="6.6" width="522.8" height="232.8" filterUnits="userSpaceOnUse" color-interpolation-filters="sRGB">
<feFlood flood-opacity="0" result="BackgroundImageFix"/>
<feBlend mode="normal" in="SourceGraphic" in2="BackgroundImageFix" result="shape"/>
<feGaussianBlur stdDeviation="25.95" result="effect1_foregroundBlur_3_3"/>
</filter>
<filter id="filter3_f_3_3" x="63.1" y="30.6" width="488.8" height="223.8" filterUnits="userSpaceOnUse" color-interpolation-filters="sRGB">
<feFlood flood-opacity="0" result="BackgroundImageFix"/>
<feBlend mode="normal" in="SourceGraphic" in2="BackgroundImageFix" result="shape"/>
<feGaussianBlur stdDeviation="25.95" result="effect1_foregroundBlur_3_3"/>
</filter>
<filter id="filter4_f_3_3" x="146.1" y="69.6" width="322.8" height="165.8" filterUnits="userSpaceOnUse" color-interpolation-filters="sRGB">
<feFlood flood-opacity="0" result="BackgroundImageFix"/>
<feBlend mode="normal" in="SourceGraphic" in2="BackgroundImageFix" result="shape"/>
<feGaussianBlur stdDeviation="25.95" result="effect1_foregroundBlur_3_3"/>
</filter>
<radialGradient id="paint0_radial_3_3" cx="0" cy="0" r="1" gradientUnits="userSpaceOnUse" gradientTransform="translate(294 79.5) scale(377.5 86.2437)">
<stop offset="0.614065" stop-color="#00CB92"/>
</radialGradient>
<radialGradient id="paint1_radial_3_3" cx="0" cy="0" r="1" gradientUnits="userSpaceOnUse" gradientTransform="translate(294 79.5) scale(377.5 86.2437)">
<stop offset="0.614065" stop-color="#00CB92"/>
</radialGradient>
<radialGradient id="paint2_radial_3_3" cx="0" cy="0" r="1" gradientUnits="userSpaceOnUse" gradientTransform="translate(293.473 77.5103) scale(377.347 86.2571)">
<stop offset="0.614065" stop-color="#00CB92"/>
</radialGradient>
<radialGradient id="paint3_radial_3_3" cx="0" cy="0" r="1" gradientUnits="userSpaceOnUse" gradientTransform="translate(293.473 77.5103) scale(377.347 86.2571)">
<stop offset="0.614065" stop-color="#00CB92"/>
</radialGradient>
<radialGradient id="paint4_radial_3_3" cx="0" cy="0" r="1" gradientUnits="userSpaceOnUse" gradientTransform="translate(293.473 77.5103) scale(377.347 86.2571)">
<stop offset="0.614065" stop-color="#00CB92"/>
</radialGradient>
<radialGradient id="paint5_radial_3_3" cx="0" cy="0" r="1" gradientUnits="userSpaceOnUse" gradientTransform="translate(293.473 77.5103) scale(377.347 86.2571)">
<stop offset="0.614065" stop-color="#00CB92"/>
</radialGradient>
</defs>
</svg>
