<svg width="73" height="73" viewBox="0 0 73 73" fill="none" xmlns="http://www.w3.org/2000/svg">
<path d="M12.01 21.957H60.0503" stroke="white" stroke-width="6.00504" stroke-linecap="round" stroke-linejoin="round"/>
<path d="M30.0253 33.9672V51.9823" stroke="white" stroke-width="6.00504" stroke-linecap="round" stroke-linejoin="round"/>
<path d="M42.0353 33.9672V51.9823" stroke="white" stroke-width="6.00504" stroke-linecap="round" stroke-linejoin="round"/>
<path d="M15.0126 21.957L18.0151 57.9873C18.0151 59.5799 18.6478 61.1073 19.7739 62.2335C20.9001 63.3596 22.4275 63.9923 24.0201 63.9923H48.0403C49.6329 63.9923 51.1603 63.3596 52.2865 62.2335C53.4127 61.1073 54.0453 59.5799 54.0453 57.9873L57.0479 21.957" stroke="white" stroke-width="6.00504" stroke-linecap="round" stroke-linejoin="round"/>
<path d="M27.0226 21.957V12.9494C27.0226 12.1531 27.3389 11.3894 27.902 10.8263C28.4651 10.2632 29.2288 9.9469 30.0251 9.9469H42.0352C42.8315 9.9469 43.5952 10.2632 44.1583 10.8263C44.7214 11.3894 45.0377 12.1531 45.0377 12.9494V21.957" stroke="white" stroke-width="6.00504" stroke-linecap="round" stroke-linejoin="round"/>
</svg>
