<svg width="50" height="60" viewBox="0 0 50 60" fill="none" xmlns="http://www.w3.org/2000/svg">
<g filter="url(#filter0_f_207_8219)">
<path fill-rule="evenodd" clip-rule="evenodd" d="M40.4324 34.5C41.2351 34.5 41.7106 33.6021 41.2597 32.9382L25.8272 10.2179C25.4305 9.63374 24.5696 9.63374 24.1728 10.2179L8.7404 32.9382C8.28943 33.6021 8.765 34.5 9.56762 34.5H15C15.5523 34.5 16 34.9478 16 35.5V50C16 50.5523 16.4477 51 17 51H33C33.5523 51 34 50.5523 34 50V35.5C34 34.9478 34.4477 34.5 35 34.5H40.4324Z" fill="url(#paint0_linear_207_8219)"/>
</g>
<path fill-rule="evenodd" clip-rule="evenodd" d="M40.4324 34.5C41.2351 34.5 41.7106 33.6021 41.2597 32.9382L25.8272 10.2179C25.4305 9.63374 24.5696 9.63374 24.1728 10.2179L8.7404 32.9382C8.28943 33.6021 8.765 34.5 9.56762 34.5H15C15.5523 34.5 16 34.9478 16 35.5V50C16 50.5523 16.4477 51 17 51H33C33.5523 51 34 50.5523 34 50V35.5C34 34.9478 34.4477 34.5 35 34.5H40.4324Z" fill="url(#paint1_linear_207_8219)"/>
<g filter="url(#filter1_f_207_8219)">
<mask id="path-3-outside-1_207_8219" maskUnits="userSpaceOnUse" x="3.25122" y="4.53149" width="43" height="52" fill="black">
<rect fill="white" x="3.25122" y="4.53149" width="43" height="52"/>
<path fill-rule="evenodd" clip-rule="evenodd" d="M41.7335 34.79C42.5309 34.79 43.0076 33.9023 42.567 33.2376L25.8267 7.97905C25.4312 7.38231 24.5551 7.38231 24.1596 7.97905L7.41934 33.2376C6.97879 33.9023 7.45543 34.79 8.25289 34.79H14.327C14.8793 34.79 15.327 35.2377 15.327 35.79V51.9517C15.327 52.504 15.7747 52.9517 16.327 52.9517H33.6595C34.2118 52.9517 34.6595 52.504 34.6595 51.9517V35.79C34.6595 35.2377 35.1072 34.79 35.6595 34.79H41.7335Z"/>
</mask>
<path d="M7.41934 33.2376L9.92 34.8949L7.41934 33.2376ZM42.567 33.2376L40.0664 34.8949L42.567 33.2376ZM25.8267 7.97905L23.3261 9.63638L25.8267 7.97905ZM24.1596 7.97905L26.6603 9.63638L24.1596 7.97905ZM23.3261 9.63638L40.0664 34.8949L45.0677 31.5803L28.3274 6.32172L23.3261 9.63638ZM9.92 34.8949L26.6603 9.63638L21.659 6.32172L4.91869 31.5803L9.92 34.8949ZM14.327 31.79H8.25289V37.79H14.327V31.79ZM18.327 51.9517V35.79H12.327V51.9517H18.327ZM33.6595 49.9517H16.327V55.9517H33.6595V49.9517ZM31.6595 35.79V51.9517H37.6595V35.79H31.6595ZM41.7335 31.79H35.6595V37.79H41.7335V31.79ZM37.6595 35.79C37.6595 36.8946 36.7641 37.79 35.6595 37.79V31.79C33.4504 31.79 31.6595 33.5809 31.6595 35.79H37.6595ZM33.6595 55.9517C35.8687 55.9517 37.6595 54.1609 37.6595 51.9517H31.6595C31.6595 50.8472 32.5549 49.9517 33.6595 49.9517V55.9517ZM12.327 51.9517C12.327 54.1609 14.1179 55.9517 16.327 55.9517V49.9517C17.4316 49.9517 18.327 50.8472 18.327 51.9517H12.327ZM14.327 37.79C13.2224 37.79 12.327 36.8946 12.327 35.79H18.327C18.327 33.5809 16.5361 31.79 14.327 31.79V37.79ZM4.91869 31.5803C3.15648 34.2392 5.06301 37.79 8.25289 37.79V31.79C9.84784 31.79 10.8011 33.5655 9.92 34.8949L4.91869 31.5803ZM40.0664 34.8949C39.1853 33.5655 40.1385 31.79 41.7335 31.79V37.79C44.9234 37.79 46.8299 34.2392 45.0677 31.5803L40.0664 34.8949ZM28.3274 6.32172C26.7454 3.93475 23.241 3.93475 21.659 6.32172L26.6603 9.63638C25.8693 10.8299 24.1171 10.8299 23.3261 9.63638L28.3274 6.32172Z" fill="url(#paint2_linear_207_8219)" mask="url(#path-3-outside-1_207_8219)"/>
</g>
<g filter="url(#filter2_f_207_8219)">
<mask id="path-5-outside-2_207_8219" maskUnits="userSpaceOnUse" x="4.56592" y="6.77979" width="40" height="48" fill="black">
<rect fill="white" x="4.56592" y="6.77979" width="40" height="48"/>
<path fill-rule="evenodd" clip-rule="evenodd" d="M40.4324 34.5C41.2351 34.5 41.7106 33.6021 41.2597 32.9382L25.8272 10.2179C25.4305 9.63374 24.5696 9.63374 24.1728 10.2179L8.7404 32.9382C8.28943 33.6021 8.765 34.5 9.56762 34.5H15C15.5523 34.5 16 34.9478 16 35.5V50C16 50.5523 16.4477 51 17 51H33C33.5523 51 34 50.5523 34 50V35.5C34 34.9478 34.4477 34.5 35 34.5H40.4324Z"/>
</mask>
<path d="M8.7404 32.9382L6.25874 31.2525L8.7404 32.9382ZM41.2597 32.9382L43.7413 31.2525L41.2597 32.9382ZM25.8272 10.2179L28.3089 8.53227L25.8272 10.2179ZM24.1728 10.2179L26.6545 11.9035L24.1728 10.2179ZM23.3456 11.9035L38.778 34.6238L43.7413 31.2525L28.3089 8.53227L23.3456 11.9035ZM11.2221 34.6238L26.6545 11.9035L21.6911 8.53227L6.25874 31.2525L11.2221 34.6238ZM15 31.5H9.56762V37.5H15V31.5ZM19 50V35.5H13V50H19ZM33 48H17V54H33V48ZM31 35.5V50H37V35.5H31ZM40.4324 31.5H35V37.5H40.4324V31.5ZM37 35.5C37 36.6046 36.1046 37.5 35 37.5V31.5C32.7909 31.5 31 33.2909 31 35.5H37ZM33 54C35.2092 54 37 52.2092 37 50H31C31 48.8955 31.8955 48 33 48V54ZM13 50C13 52.2092 14.7909 54 17 54V48C18.1046 48 19 48.8955 19 50H13ZM15 37.5C13.8955 37.5 13 36.6046 13 35.5H19C19 33.2909 17.2092 31.5 15 31.5V37.5ZM6.25874 31.2525C4.45484 33.9083 6.35715 37.5 9.56762 37.5V31.5C11.1729 31.5 12.124 33.2959 11.2221 34.6238L6.25874 31.2525ZM38.778 34.6238C37.876 33.2959 38.8272 31.5 40.4324 31.5V37.5C43.6429 37.5 45.5452 33.9083 43.7413 31.2525L38.778 34.6238ZM28.3089 8.53227C26.7218 6.19562 23.2783 6.19562 21.6911 8.53227L26.6545 11.9035C25.8609 13.0719 24.1392 13.0719 23.3456 11.9035L28.3089 8.53227Z" fill="url(#paint3_linear_207_8219)" mask="url(#path-5-outside-2_207_8219)"/>
</g>
<defs>
<filter id="filter0_f_207_8219" x="2.46592" y="3.67979" width="45.0682" height="53.4202" filterUnits="userSpaceOnUse" color-interpolation-filters="sRGB">
<feFlood flood-opacity="0" result="BackgroundImageFix"/>
<feBlend mode="normal" in="SourceGraphic" in2="BackgroundImageFix" result="shape"/>
<feGaussianBlur stdDeviation="3.05" result="effect1_foregroundBlur_207_8219"/>
</filter>
<filter id="filter1_f_207_8219" x="0.346216" y="0.631494" width="49.294" height="59.2202" filterUnits="userSpaceOnUse" color-interpolation-filters="sRGB">
<feFlood flood-opacity="0" result="BackgroundImageFix"/>
<feBlend mode="normal" in="SourceGraphic" in2="BackgroundImageFix" result="shape"/>
<feGaussianBlur stdDeviation="1.95" result="effect1_foregroundBlur_207_8219"/>
</filter>
<filter id="filter2_f_207_8219" x="4.96079" y="6.17979" width="40.0784" height="48.4202" filterUnits="userSpaceOnUse" color-interpolation-filters="sRGB">
<feFlood flood-opacity="0" result="BackgroundImageFix"/>
<feBlend mode="normal" in="SourceGraphic" in2="BackgroundImageFix" result="shape"/>
<feGaussianBlur stdDeviation="0.3" result="effect1_foregroundBlur_207_8219"/>
</filter>
<linearGradient id="paint0_linear_207_8219" x1="25" y1="51" x2="25" y2="9.77979" gradientUnits="userSpaceOnUse">
<stop stop-color="#C4590C" stop-opacity="0"/>
<stop offset="0.65255" stop-color="#FF9B29"/>
<stop offset="0.989011" stop-color="#F5C72E"/>
</linearGradient>
<linearGradient id="paint1_linear_207_8219" x1="25" y1="51" x2="25" y2="9.77979" gradientUnits="userSpaceOnUse">
<stop stop-color="#C4590C" stop-opacity="0"/>
<stop offset="0.65255" stop-color="#FF9B29"/>
<stop offset="0.989011" stop-color="#F5C72E"/>
</linearGradient>
<linearGradient id="paint2_linear_207_8219" x1="17.1446" y1="4.45523" x2="11.9944" y2="48.3226" gradientUnits="userSpaceOnUse">
<stop offset="0.648488" stop-color="#C4560D"/>
<stop offset="1" stop-color="#C4560D" stop-opacity="0"/>
</linearGradient>
<linearGradient id="paint3_linear_207_8219" x1="25" y1="9.77979" x2="25" y2="47.7515" gradientUnits="userSpaceOnUse">
<stop offset="0.806666" stop-color="#EDCD64"/>
<stop offset="1" stop-color="#765733" stop-opacity="0.04"/>
</linearGradient>
</defs>
</svg>
