<svg width="84" height="85" viewBox="0 0 84 85" fill="none" xmlns="http://www.w3.org/2000/svg">
<g filter="url(#filter0_ddiii_177_5467)">
<ellipse cx="43" cy="38.5" rx="33" ry="33.5" fill="url(#paint0_linear_177_5467)"/>
</g>
<path d="M70.5 22.5C70.5 22.5 64.283 14.5535 55.5 10.4998C46.717 6.44613 37.5 6.49993 37.5 6.49993C37.5 6.49993 47.5 4.71388 56.5 8.99982C65.5 13.2858 70.5 22.5 70.5 22.5Z" fill="url(#paint1_linear_177_5467)"/>
<path fill-rule="evenodd" clip-rule="evenodd" d="M43.5 65C58.1355 65 69.9999 53.3474 69.9999 38.9733C69.9999 24.5991 58.1355 12.9465 43.5 12.9465C28.8644 12.9465 17 24.5991 17 38.9733C17 53.3474 28.8644 65 43.5 65ZM43.5 62.1083C56.5094 62.1083 67.0555 51.3189 67.0555 38.0095C67.0555 24.7001 56.5094 13.9106 43.5 13.9106C30.4906 13.9106 19.9445 24.7001 19.9445 38.0095C19.9445 51.3189 30.4906 62.1083 43.5 62.1083Z" fill="#50E66E"/>
<path fill-rule="evenodd" clip-rule="evenodd" d="M43.9908 63.107C58.3553 63.107 70 51.6663 70 37.5535C70 23.4407 58.3553 12 43.9908 12C29.6263 12 17.9816 23.4407 17.9816 37.5535C17.9816 51.6663 29.6263 63.107 43.9908 63.107ZM43.9909 61.2144C56.7593 61.2144 67.1102 50.6212 67.1102 37.5537C67.1102 24.4863 56.7593 13.8931 43.9909 13.8931C31.2224 13.8931 20.8715 24.4863 20.8715 37.5537C20.8715 50.6212 31.2224 61.2144 43.9909 61.2144Z" fill="#19783F"/>
<g filter="url(#filter1_ii_177_5467)">
<path d="M69 38.5C69 52.5833 57.5833 64 43.5 64C29.4167 64 18 52.5833 18 38.5C18 24.4167 29.4167 13 43.5 13C57.5833 13 69 24.4167 69 38.5Z" fill="#00816C"/>
</g>
<g filter="url(#filter2_ddii_177_5467)">
<path d="M54.2812 29.0653V24.0938C54.2812 23.4897 53.7916 23 53.1875 23H37.9622C37.6729 23 37.3953 23.1146 37.1903 23.3188L33.0406 27.4521C32.8346 27.6574 32.7188 27.9362 32.7188 28.227V51.9062C32.7188 52.5103 33.2084 53 33.8125 53H38.8125C39.4166 53 39.9063 52.5103 39.9063 51.9062V43.8665C39.9063 43.2624 40.3959 42.7727 41 42.7727H50.7917C51.3957 42.7727 51.8854 42.283 51.8854 41.679V36.7074C51.8854 36.1033 51.3957 35.6136 50.7917 35.6136H41C40.3959 35.6136 39.9063 35.1239 39.9063 34.5199V31.2528C39.9063 30.6488 40.3959 30.1591 41 30.1591H53.1875C53.7916 30.1591 54.2812 29.6694 54.2812 29.0653Z" fill="url(#paint2_linear_177_5467)"/>
</g>
<mask id="mask0_177_5467" style="mask-type:alpha" maskUnits="userSpaceOnUse" x="11" y="6" width="64" height="65">
<path fill-rule="evenodd" clip-rule="evenodd" d="M75 38.5C75 56.4493 60.6731 71 43 71C25.3269 71 11 56.4493 11 38.5C11 20.5507 25.3269 6 43 6C60.6731 6 75 20.5507 75 38.5ZM70 38C70 52.3594 58.3594 64 44 64C29.6406 64 18 52.3594 18 38C18 23.6406 29.6406 12 44 12C58.3594 12 70 23.6406 70 38ZM54.2812 24.0938V29.0653C54.2812 29.6694 53.7916 30.1591 53.1875 30.1591H41C40.3959 30.1591 39.9062 30.6488 39.9062 31.2528V34.5199C39.9062 35.1239 40.3959 35.6136 41 35.6136H50.7917C51.3957 35.6136 51.8854 36.1033 51.8854 36.7074V41.679C51.8854 42.283 51.3957 42.7727 50.7917 42.7727H41C40.3959 42.7727 39.9062 43.2624 39.9062 43.8665V51.9062C39.9062 52.5103 39.4166 53 38.8125 53H33.8125C33.2084 53 32.7188 52.5103 32.7188 51.9062V28.227C32.7188 27.9362 32.8346 27.6574 33.0406 27.4521L37.1903 23.3188C37.3953 23.1146 37.6729 23 37.9622 23H53.1875C53.7916 23 54.2812 23.4897 54.2812 24.0938Z" fill="#D9D9D9"/>
</mask>
<g mask="url(#mask0_177_5467)">
<g style="mix-blend-mode:plus-lighter" opacity="0.36" filter="url(#filter3_d_177_5467)">
<rect x="18.2349" y="-110" width="75.5855" height="140.128" transform="rotate(43.3745 18.2349 -110)" fill="url(#paint3_linear_177_5467)" shape-rendering="crispEdges"/>
</g>
</g>
<defs>
<filter id="filter0_ddiii_177_5467" x="0.9" y="0.9" width="82.2" height="83.2" filterUnits="userSpaceOnUse" color-interpolation-filters="sRGB">
<feFlood flood-opacity="0" result="BackgroundImageFix"/>
<feColorMatrix in="SourceAlpha" type="matrix" values="0 0 0 0 0 0 0 0 0 0 0 0 0 0 0 0 0 0 127 0" result="hardAlpha"/>
<feMorphology radius="2" operator="dilate" in="SourceAlpha" result="effect1_dropShadow_177_5467"/>
<feOffset dx="-1" dy="4"/>
<feGaussianBlur stdDeviation="3.05"/>
<feComposite in2="hardAlpha" operator="out"/>
<feColorMatrix type="matrix" values="0 0 0 0 0 0 0 0 0 0 0 0 0 0 0 0 0 0 0.33 0"/>
<feBlend mode="normal" in2="BackgroundImageFix" result="effect1_dropShadow_177_5467"/>
<feColorMatrix in="SourceAlpha" type="matrix" values="0 0 0 0 0 0 0 0 0 0 0 0 0 0 0 0 0 0 127 0" result="hardAlpha"/>
<feMorphology radius="1" operator="dilate" in="SourceAlpha" result="effect2_dropShadow_177_5467"/>
<feOffset dy="2"/>
<feGaussianBlur stdDeviation="0.75"/>
<feComposite in2="hardAlpha" operator="out"/>
<feColorMatrix type="matrix" values="0 0 0 0 0 0 0 0 0 0 0 0 0 0 0 0 0 0 0.33 0"/>
<feBlend mode="normal" in2="effect1_dropShadow_177_5467" result="effect2_dropShadow_177_5467"/>
<feBlend mode="normal" in="SourceGraphic" in2="effect2_dropShadow_177_5467" result="shape"/>
<feColorMatrix in="SourceAlpha" type="matrix" values="0 0 0 0 0 0 0 0 0 0 0 0 0 0 0 0 0 0 127 0" result="hardAlpha"/>
<feOffset/>
<feGaussianBlur stdDeviation="0.55"/>
<feComposite in2="hardAlpha" operator="arithmetic" k2="-1" k3="1"/>
<feColorMatrix type="matrix" values="0 0 0 0 0.101961 0 0 0 0 0.305882 0 0 0 0 0.25098 0 0 0 1 0"/>
<feBlend mode="multiply" in2="shape" result="effect3_innerShadow_177_5467"/>
<feColorMatrix in="SourceAlpha" type="matrix" values="0 0 0 0 0 0 0 0 0 0 0 0 0 0 0 0 0 0 127 0" result="hardAlpha"/>
<feOffset dx="1" dy="-2"/>
<feGaussianBlur stdDeviation="1.95"/>
<feComposite in2="hardAlpha" operator="arithmetic" k2="-1" k3="1"/>
<feColorMatrix type="matrix" values="0 0 0 0 0.101961 0 0 0 0 0.305882 0 0 0 0 0.25098 0 0 0 1 0"/>
<feBlend mode="normal" in2="effect3_innerShadow_177_5467" result="effect4_innerShadow_177_5467"/>
<feColorMatrix in="SourceAlpha" type="matrix" values="0 0 0 0 0 0 0 0 0 0 0 0 0 0 0 0 0 0 127 0" result="hardAlpha"/>
<feOffset dx="1" dy="-1"/>
<feGaussianBlur stdDeviation="0.15"/>
<feComposite in2="hardAlpha" operator="arithmetic" k2="-1" k3="1"/>
<feColorMatrix type="matrix" values="0 0 0 0 0 0 0 0 0 0 0 0 0 0 0 0 0 0 0.21 0"/>
<feBlend mode="normal" in2="effect4_innerShadow_177_5467" result="effect5_innerShadow_177_5467"/>
</filter>
<filter id="filter1_ii_177_5467" x="17" y="13" width="52" height="53" filterUnits="userSpaceOnUse" color-interpolation-filters="sRGB">
<feFlood flood-opacity="0" result="BackgroundImageFix"/>
<feBlend mode="normal" in="SourceGraphic" in2="BackgroundImageFix" result="shape"/>
<feColorMatrix in="SourceAlpha" type="matrix" values="0 0 0 0 0 0 0 0 0 0 0 0 0 0 0 0 0 0 127 0" result="hardAlpha"/>
<feOffset dx="-1" dy="2"/>
<feGaussianBlur stdDeviation="2.05"/>
<feComposite in2="hardAlpha" operator="arithmetic" k2="-1" k3="1"/>
<feColorMatrix type="matrix" values="0 0 0 0 0 0 0 0 0 0 0 0 0 0 0 0 0 0 0.35 0"/>
<feBlend mode="normal" in2="shape" result="effect1_innerShadow_177_5467"/>
<feColorMatrix in="SourceAlpha" type="matrix" values="0 0 0 0 0 0 0 0 0 0 0 0 0 0 0 0 0 0 127 0" result="hardAlpha"/>
<feOffset dx="-0.5" dy="1"/>
<feGaussianBlur stdDeviation="0.25"/>
<feComposite in2="hardAlpha" operator="arithmetic" k2="-1" k3="1"/>
<feColorMatrix type="matrix" values="0 0 0 0 0 0 0 0 0 0 0 0 0 0 0 0 0 0 0.22 0"/>
<feBlend mode="normal" in2="effect1_innerShadow_177_5467" result="effect2_innerShadow_177_5467"/>
</filter>
<filter id="filter2_ddii_177_5467" x="31.125" y="22.7188" width="23.1562" height="33.75" filterUnits="userSpaceOnUse" color-interpolation-filters="sRGB">
<feFlood flood-opacity="0" result="BackgroundImageFix"/>
<feColorMatrix in="SourceAlpha" type="matrix" values="0 0 0 0 0 0 0 0 0 0 0 0 0 0 0 0 0 0 127 0" result="hardAlpha"/>
<feOffset dx="-0.9375" dy="2.8125"/>
<feGaussianBlur stdDeviation="0.328125"/>
<feComposite in2="hardAlpha" operator="out"/>
<feColorMatrix type="matrix" values="0 0 0 0 0 0 0 0 0 0 0 0 0 0 0 0 0 0 0.25 0"/>
<feBlend mode="normal" in2="BackgroundImageFix" result="effect1_dropShadow_177_5467"/>
<feColorMatrix in="SourceAlpha" type="matrix" values="0 0 0 0 0 0 0 0 0 0 0 0 0 0 0 0 0 0 127 0" result="hardAlpha"/>
<feOffset dy="0.9375"/>
<feComposite in2="hardAlpha" operator="out"/>
<feColorMatrix type="matrix" values="0 0 0 0 0 0 0 0 0 0 0 0 0 0 0 0 0 0 0.25 0"/>
<feBlend mode="normal" in2="effect1_dropShadow_177_5467" result="effect2_dropShadow_177_5467"/>
<feBlend mode="normal" in="SourceGraphic" in2="effect2_dropShadow_177_5467" result="shape"/>
<feColorMatrix in="SourceAlpha" type="matrix" values="0 0 0 0 0 0 0 0 0 0 0 0 0 0 0 0 0 0 127 0" result="hardAlpha"/>
<feOffset dy="0.9375"/>
<feComposite in2="hardAlpha" operator="arithmetic" k2="-1" k3="1"/>
<feColorMatrix type="matrix" values="0 0 0 0 0.541176 0 0 0 0 1 0 0 0 0 0.631373 0 0 0 1 0"/>
<feBlend mode="screen" in2="shape" result="effect3_innerShadow_177_5467"/>
<feColorMatrix in="SourceAlpha" type="matrix" values="0 0 0 0 0 0 0 0 0 0 0 0 0 0 0 0 0 0 127 0" result="hardAlpha"/>
<feOffset dy="-0.9375"/>
<feGaussianBlur stdDeviation="0.140625"/>
<feComposite in2="hardAlpha" operator="arithmetic" k2="-1" k3="1"/>
<feColorMatrix type="matrix" values="0 0 0 0 0 0 0 0 0 0 0 0 0 0 0 0 0 0 0.51 0"/>
<feBlend mode="normal" in2="effect3_innerShadow_177_5467" result="effect4_innerShadow_177_5467"/>
</filter>
<filter id="filter3_d_177_5467" x="-82" y="-110" width="159.177" height="161.766" filterUnits="userSpaceOnUse" color-interpolation-filters="sRGB">
<feFlood flood-opacity="0" result="BackgroundImageFix"/>
<feColorMatrix in="SourceAlpha" type="matrix" values="0 0 0 0 0 0 0 0 0 0 0 0 0 0 0 0 0 0 127 0" result="hardAlpha"/>
<feOffset dy="4"/>
<feGaussianBlur stdDeviation="2"/>
<feComposite in2="hardAlpha" operator="out"/>
<feColorMatrix type="matrix" values="0 0 0 0 0.768055 0 0 0 0 1 0 0 0 0 0.815117 0 0 0 1 0"/>
<feBlend mode="normal" in2="BackgroundImageFix" result="effect1_dropShadow_177_5467"/>
<feBlend mode="normal" in="SourceGraphic" in2="effect1_dropShadow_177_5467" result="shape"/>
</filter>
<linearGradient id="paint0_linear_177_5467" x1="60" y1="8" x2="1.99999" y2="83" gradientUnits="userSpaceOnUse">
<stop stop-color="#32EC57"/>
<stop offset="1" stop-color="#1C8632"/>
</linearGradient>
<linearGradient id="paint1_linear_177_5467" x1="55" y1="8.50001" x2="49.995" y2="19.4977" gradientUnits="userSpaceOnUse">
<stop stop-color="#9EFFB1"/>
<stop offset="0.256666" stop-color="#9EFFB1" stop-opacity="0"/>
</linearGradient>
<linearGradient id="paint2_linear_177_5467" x1="49.054" y1="24.3433" x2="-2.915" y2="78.882" gradientUnits="userSpaceOnUse">
<stop stop-color="#32EC57"/>
<stop offset="1" stop-color="#1C8632"/>
</linearGradient>
<linearGradient id="paint3_linear_177_5467" x1="108.121" y1="-67.6691" x2="77.22" y2="-58.1375" gradientUnits="userSpaceOnUse">
<stop stop-color="#CDFFD7"/>
<stop offset="0.246666" stop-color="#A0FFBF" stop-opacity="0.878334"/>
<stop offset="1" stop-color="#A0FFBF" stop-opacity="0"/>
</linearGradient>
</defs>
</svg>
