<svg width="76" height="113" viewBox="0 0 76 113" fill="none" xmlns="http://www.w3.org/2000/svg">
<g opacity="0.59">
<g filter="url(#filter0_f_159_3785)">
<path fill-rule="evenodd" clip-rule="evenodd" d="M30.7372 25.8445C30.3488 25.149 29.9608 24.4817 29.5832 23.8322C26.6523 18.7915 24.3481 14.8288 27.3493 7.10092C29.0021 2.84516 29.3821 4.07426 30.2184 6.77922C30.258 6.90748 30.2987 7.03905 30.3406 7.17351C30.2631 7.57503 30.1744 8.00854 30.0806 8.46738C28.9847 13.826 27.1826 22.6387 34.1373 24.2714C41.1712 25.9228 53.1381 41.2578 52.9281 50.0078C56.955 51.3909 58.5668 56.9705 58.2969 59.6264C57.1918 70.5009 52.5734 73.0393 50.1848 74.3521C49.6805 74.6293 49.2756 74.8519 49.0241 75.0867C52.7453 74.1745 62.0864 67.288 64.2026 57.5467C65.107 53.3834 60.2644 41.7218 57.3873 34.7934C57.0622 34.0107 56.7623 33.2883 56.4985 32.644C71.1436 53.8572 67.9433 67.2425 65.692 76.658L65.6916 76.6597C65.5824 77.1164 65.4755 77.5637 65.3729 78.0022C64.0332 83.7287 61.5708 88.3651 58.3805 91.8305C53.1527 98.1018 45.1748 102.467 37.6928 102.221C21.5325 101.829 7.62129 86.0085 8.57817 71.4907C9.05855 66.2292 10.9449 61.7385 13.9052 58.1707C15.9112 55.0639 18.575 52.2173 22.6103 47.9052C29.3081 40.748 34.1404 31.939 30.7372 25.8445Z" fill="url(#paint0_linear_159_3785)" fill-opacity="0.7"/>
</g>
<g filter="url(#filter1_f_159_3785)">
<path fill-rule="evenodd" clip-rule="evenodd" d="M31.0939 13.4072C30.7826 13.5143 30.5073 13.6336 30.2729 13.7657C30.7866 14.1641 31.782 14.631 33.0406 15.2213C35.654 16.4471 39.4021 18.2051 42.3272 20.9869C47.1864 25.6079 52.4526 35.5235 52.5522 43.7484C56.3833 44.9268 56.7919 49.2086 56.6283 51.7113C55.8932 62.9636 51.0106 67.3806 49.1294 69.0825C48.9357 69.2577 48.7738 69.4042 48.6515 69.5264C52.1174 68.558 60.2127 63.7195 61.8708 54.5063C62.4677 51.1901 62.3434 49.1815 62.2742 48.0641C62.2236 47.2472 62.2026 46.9066 62.5143 46.8795C63.2523 46.8155 63.6091 47.0596 65.3479 53.2503C66.6939 58.0425 66.3979 64.4408 66.1955 67.0871C65.9138 69.0694 65.5533 70.8973 65.2252 72.5609L65.2251 72.5616C65.1664 72.8593 65.1087 73.1517 65.0527 73.4389C63.9433 79.1268 61.6325 83.7229 58.5447 87.126C53.843 92.9123 46.7156 97.0111 39.8763 96.9978C24.6842 97.1002 11.0656 82.6274 11.4572 68.9459C11.7373 63.7489 13.4954 59.3019 16.3793 55.7806C18.1207 52.995 20.4491 50.3244 23.8737 46.3967L24.1745 46.0517C30.0697 39.2926 34.7619 33.9129 34.2402 26.4573C33.9213 21.9008 32.062 19.0933 30.7181 17.0641C29.8258 15.7168 29.1607 14.7126 29.3248 13.7673C29.4082 13.2869 30.0398 13.1691 31.0939 13.4072ZM11.9174 40.2806C10.4778 43.8434 10.8335 46.8444 12.1204 50.0498C12.8022 47.674 14.1876 43.8371 17.6189 43.4232C19.4545 43.2017 20.4888 39.4913 17.9932 38.0317C16.1332 36.9438 12.8233 38.0385 11.9174 40.2806Z" fill="url(#paint1_linear_159_3785)"/>
</g>
<g filter="url(#filter2_f_159_3785)">
<path fill-rule="evenodd" clip-rule="evenodd" d="M31.66 22.5715C31.3328 22.6617 31.0418 22.7639 30.7921 22.8788C31.3263 23.2706 32.3732 23.7417 33.6968 24.3373C36.4454 25.574 40.3873 27.3476 43.4092 30.0636C48.4292 34.5753 53.68 44.1006 53.4687 51.8731C57.5218 53.1017 57.7935 57.1588 57.5218 59.518C56.3005 70.1251 50.9063 74.1504 48.8279 75.7013C48.6139 75.861 48.435 75.9944 48.2995 76.1061C52.0449 75.2959 60.8925 70.9693 63.0224 62.3163C63.7891 59.2017 63.7337 57.3006 63.7029 56.243C63.6804 55.4698 63.671 55.1474 64.0055 55.1312C64.7976 55.0929 65.1698 55.3344 66.7908 61.2347C68.1732 66.2665 67.3482 73.0798 67.0754 74.9765C66.7264 76.5775 66.3286 78.0642 65.9625 79.4324C65.8877 79.712 65.8142 79.9866 65.7427 80.2562C64.3927 85.3489 61.9101 89.4709 58.6938 92.5503C53.4318 98.1147 45.4079 101.987 37.8825 101.768C21.6171 101.42 7.61537 87.3671 8.57847 74.4712C9.06217 69.7956 10.9621 65.8053 13.9437 62.6355C15.9623 59.8776 18.6427 57.3497 22.7019 53.5216L23.0379 53.2047C29.6225 46.997 34.8634 42.0561 34.601 35.0028C34.4407 30.6921 32.5604 27.9874 31.2014 26.0325C30.299 24.7344 29.6264 23.767 29.8398 22.8795C29.9454 22.4405 30.5934 22.341 31.66 22.5715ZM14.5317 41.5038C12.8477 44.8247 13.1094 47.6682 14.3605 50.7317C15.1854 48.509 16.8223 44.9276 20.5149 44.6374C22.4902 44.4822 23.746 41.0099 21.1303 39.5588C19.1809 38.4774 15.5914 39.4137 14.5317 41.5038Z" fill="url(#paint2_radial_159_3785)"/>
</g>
<path fill-rule="evenodd" clip-rule="evenodd" d="M31.66 22.5715C31.3328 22.6617 31.0418 22.7639 30.7921 22.8788C31.3263 23.2706 32.3732 23.7417 33.6968 24.3373C36.4454 25.574 40.3873 27.3476 43.4092 30.0636C48.4292 34.5753 53.68 44.1006 53.4687 51.8731C57.5218 53.1017 57.7935 57.1588 57.5218 59.518C56.3005 70.1251 50.9063 74.1504 48.8279 75.7013C48.6139 75.861 48.435 75.9944 48.2995 76.1061C52.0449 75.2959 60.8925 70.9693 63.0224 62.3163C63.7891 59.2017 63.7337 57.3006 63.7029 56.243C63.6804 55.4698 63.671 55.1474 64.0055 55.1312C64.7976 55.0929 65.1698 55.3344 66.7908 61.2347C68.1732 66.2665 67.3482 73.0798 67.0754 74.9765C66.7264 76.5775 66.3286 78.0642 65.9625 79.4324C65.8877 79.712 65.8142 79.9866 65.7427 80.2562C64.3927 85.3489 61.9101 89.4709 58.6938 92.5503C53.4318 98.1147 45.4079 101.987 37.8825 101.768C21.6171 101.42 7.61537 87.3671 8.57847 74.4712C9.06217 69.7956 10.9621 65.8053 13.9437 62.6355C15.9623 59.8776 18.6427 57.3497 22.7019 53.5216L23.0379 53.2047C29.6225 46.997 34.8634 42.0561 34.601 35.0028C34.4407 30.6921 32.5604 27.9874 31.2014 26.0325C30.299 24.7344 29.6264 23.767 29.8398 22.8795C29.9454 22.4405 30.5934 22.341 31.66 22.5715ZM14.5317 41.5038C12.8477 44.8247 13.1094 47.6682 14.3605 50.7317C15.1854 48.509 16.8223 44.9276 20.5149 44.6374C22.4902 44.4822 23.746 41.0099 21.1303 39.5588C19.1809 38.4774 15.5914 39.4137 14.5317 41.5038Z" fill="url(#paint3_radial_159_3785)"/>
<path fill-rule="evenodd" clip-rule="evenodd" d="M31.6604 22.5748C31.333 22.6674 31.0419 22.7725 30.7921 22.8905C31.3262 23.2928 32.3731 23.7766 33.6968 24.3881C36.4454 25.6581 40.3872 27.4794 43.4091 30.2683C48.4292 34.9012 53.68 44.6825 53.4687 52.6637C57.5218 53.9254 57.7935 58.0914 57.5218 60.514C56.3004 71.4061 50.9062 75.5395 48.8279 77.1321C48.6139 77.2961 48.435 77.4332 48.2995 77.5479C52.0449 76.7158 60.8924 72.273 63.0224 63.3875C63.7891 60.1893 63.7337 58.2371 63.7029 57.151C63.6804 56.3571 63.671 56.026 64.0055 56.0094C64.7975 55.9701 65.1698 56.218 66.7908 62.2768C68.1732 67.4436 67.3483 74.4395 67.0755 76.3876C66.7265 78.0317 66.3286 79.5583 65.9625 80.9633C65.8877 81.2504 65.8142 81.5324 65.7427 81.8092C64.393 87.0375 61.9113 91.2696 58.696 94.4314C53.434 100.147 45.4089 104.124 37.8825 103.899C21.6171 103.542 7.61537 89.1114 8.57847 75.869C9.06213 71.0682 10.9618 66.9709 13.943 63.7161C15.9617 60.8837 18.6422 58.2878 22.7019 54.3563L23.0379 54.031C29.6225 47.6565 34.8634 42.5828 34.601 35.34C34.4407 30.9135 32.5604 28.1361 31.2014 26.1287C30.299 24.7958 29.6264 23.8023 29.8398 22.891C29.9454 22.4402 30.5936 22.338 31.6604 22.5748ZM14.5317 42.0156C12.8477 45.4258 13.1094 48.3456 14.3605 51.4915C15.1854 49.2091 16.8223 45.5315 20.5149 45.2335C22.4902 45.0741 23.746 41.5085 21.1303 40.0185C19.1809 38.9079 15.5914 39.8695 14.5317 42.0156Z" fill="url(#paint4_linear_159_3785)"/>
<g style="mix-blend-mode:color-dodge" opacity="0.45" filter="url(#filter3_f_159_3785)">
<ellipse cx="38.2392" cy="83.5419" rx="17.2743" ry="20.3666" fill="#00293B"/>
</g>
<g filter="url(#filter4_f_159_3785)">
<path d="M17.4094 80.5918C17.8822 90.1363 22.1429 94.5113 26.9442 97.4183C36.7331 103.345 44.0703 100.832 45.8715 99.9528C50.4769 97.705 52.5867 94.1528 52.3534 89.4446C52.1202 84.7364 49.852 82.8058 46.7355 79.2294C46.9671 83.9048 42.1307 86.8867 39.0822 84.6847C31.3511 79.1004 42.4035 68.1077 43.8968 60.0886C45.3901 52.0694 42.9052 40.0707 40.8646 39.0298C40.8646 39.0298 39.5354 49.8328 32.6592 57.5821C25.783 65.3315 16.9365 71.0472 17.4094 80.5918Z" fill="url(#paint5_linear_159_3785)"/>
</g>
<path d="M15.8217 82.3284C15.8217 90.9069 19.861 95.0076 24.513 97.8144C33.9974 103.537 41.4506 101.589 43.2932 100.876C48.0046 99.0518 50.2876 95.9543 50.2876 91.7227C50.2876 87.491 48.1175 85.6653 45.1816 82.3284C45.1816 86.5306 40.2031 89.003 37.2672 86.9015C29.8212 81.5718 41.4048 72.1748 43.2932 65.046C45.1816 57.9172 43.2932 47.0541 41.3065 46.0356C41.3065 46.0356 39.7328 55.2456 32.4811 61.9082C25.2293 68.5708 15.8217 73.7498 15.8217 82.3284Z" fill="url(#paint6_linear_159_3785)"/>
<g style="mix-blend-mode:plus-lighter" filter="url(#filter5_f_159_3785)">
<ellipse cx="16.6339" cy="18.3836" rx="16.6339" ry="18.3836" transform="matrix(0.974047 0.226347 -0.240507 0.970647 27.2678 60.8291)" fill="#07372B" fill-opacity="0.45"/>
</g>
</g>
<defs>
<filter id="filter0_f_159_3785" x="4.53156" y="0.318848" width="67.1147" height="105.912" filterUnits="userSpaceOnUse" color-interpolation-filters="sRGB">
<feFlood flood-opacity="0" result="BackgroundImageFix"/>
<feBlend mode="normal" in="SourceGraphic" in2="BackgroundImageFix" result="shape"/>
<feGaussianBlur stdDeviation="2" result="effect1_foregroundBlur_159_3785"/>
</filter>
<filter id="filter1_f_159_3785" x="4.18587" y="6.48809" width="68.9863" height="97.3104" filterUnits="userSpaceOnUse" color-interpolation-filters="sRGB">
<feFlood flood-opacity="0" result="BackgroundImageFix"/>
<feBlend mode="normal" in="SourceGraphic" in2="BackgroundImageFix" result="shape"/>
<feGaussianBlur stdDeviation="3.4" result="effect1_foregroundBlur_159_3785"/>
</filter>
<filter id="filter2_f_159_3785" x="6.43156" y="20.3512" width="63.2376" height="83.5257" filterUnits="userSpaceOnUse" color-interpolation-filters="sRGB">
<feFlood flood-opacity="0" result="BackgroundImageFix"/>
<feBlend mode="normal" in="SourceGraphic" in2="BackgroundImageFix" result="shape"/>
<feGaussianBlur stdDeviation="1.05" result="effect1_foregroundBlur_159_3785"/>
</filter>
<filter id="filter3_f_159_3785" x="12.1649" y="54.3753" width="52.1486" height="58.3334" filterUnits="userSpaceOnUse" color-interpolation-filters="sRGB">
<feFlood flood-opacity="0" result="BackgroundImageFix"/>
<feBlend mode="normal" in="SourceGraphic" in2="BackgroundImageFix" result="shape"/>
<feGaussianBlur stdDeviation="4.4" result="effect1_foregroundBlur_159_3785"/>
</filter>
<filter id="filter4_f_159_3785" x="13.3912" y="35.0298" width="42.9797" height="70.208" filterUnits="userSpaceOnUse" color-interpolation-filters="sRGB">
<feFlood flood-opacity="0" result="BackgroundImageFix"/>
<feBlend mode="normal" in="SourceGraphic" in2="BackgroundImageFix" result="shape"/>
<feGaussianBlur stdDeviation="2" result="effect1_foregroundBlur_159_3785"/>
</filter>
<filter id="filter5_f_159_3785" x="13.4498" y="55.3978" width="51.1977" height="54.081" filterUnits="userSpaceOnUse" color-interpolation-filters="sRGB">
<feFlood flood-opacity="0" result="BackgroundImageFix"/>
<feBlend mode="normal" in="SourceGraphic" in2="BackgroundImageFix" result="shape"/>
<feGaussianBlur stdDeviation="4.4" result="effect1_foregroundBlur_159_3785"/>
</filter>
<linearGradient id="paint0_linear_159_3785" x1="35.2419" y1="117.707" x2="38.5956" y2="4.39481" gradientUnits="userSpaceOnUse">
<stop stop-color="#039766"/>
<stop offset="0.851666" stop-color="#015AAF"/>
<stop offset="0.971666" stop-color="#01509C"/>
</linearGradient>
<linearGradient id="paint1_linear_159_3785" x1="37.0654" y1="13.0605" x2="39.8258" y2="97.0099" gradientUnits="userSpaceOnUse">
<stop offset="0.185" stop-color="#003A7C"/>
<stop offset="1" stop-color="#0CB094"/>
</linearGradient>
<radialGradient id="paint2_radial_159_3785" cx="0" cy="0" r="1" gradientUnits="userSpaceOnUse" gradientTransform="translate(30.1255 99.1354) rotate(-53.0885) scale(62.3457 73.5984)">
<stop offset="0.155" stop-color="#00C58B"/>
<stop offset="0.426667" stop-color="#0AA296"/>
<stop offset="0.61" stop-color="#108098"/>
<stop offset="1" stop-color="#004F9C"/>
</radialGradient>
<radialGradient id="paint3_radial_159_3785" cx="0" cy="0" r="1" gradientUnits="userSpaceOnUse" gradientTransform="translate(30.1255 99.1354) rotate(-53.0885) scale(62.3457 73.5984)">
<stop offset="0.155" stop-color="#00C58B"/>
<stop offset="0.426667" stop-color="#0AA296"/>
<stop offset="0.61" stop-color="#108098"/>
<stop offset="1" stop-color="#004F9C"/>
</radialGradient>
<linearGradient id="paint4_linear_159_3785" x1="38.0503" y1="22.4512" x2="38.0503" y2="103.908" gradientUnits="userSpaceOnUse">
<stop stop-color="#004692" stop-opacity="0.58"/>
<stop offset="0.626666" stop-color="#00D6A1" stop-opacity="0"/>
</linearGradient>
<linearGradient id="paint5_linear_159_3785" x1="37.6479" y1="99.561" x2="41.3006" y2="20.9299" gradientUnits="userSpaceOnUse">
<stop stop-color="#70EACB"/>
<stop offset="1" stop-color="#118F99" stop-opacity="0"/>
</linearGradient>
<linearGradient id="paint6_linear_159_3785" x1="35.0984" y1="100.182" x2="39.5191" y2="51.7431" gradientUnits="userSpaceOnUse">
<stop stop-color="#97F5DD"/>
<stop offset="1" stop-color="#53DBBC" stop-opacity="0"/>
</linearGradient>
</defs>
</svg>
