<svg width="50" height="60" viewBox="0 0 50 60" fill="none" xmlns="http://www.w3.org/2000/svg">
<g filter="url(#filter0_f_207_8204)">
<path fill-rule="evenodd" clip-rule="evenodd" d="M9.56073 25.5C8.75811 25.5 8.28254 26.3979 8.73351 27.0618L24.1659 49.7821C24.5627 50.3663 25.4236 50.3663 25.8204 49.7821L41.2528 27.0618C41.7037 26.3979 41.2282 25.5 40.4255 25.5L34.9931 25.5C34.4409 25.5 33.9931 25.0522 33.9931 24.5L33.9931 9.99996C33.9931 9.44768 33.5454 8.99996 32.9931 8.99996L16.9931 8.99996C16.4409 8.99996 15.9931 9.44768 15.9931 9.99996L15.9931 24.5C15.9931 25.0522 15.5454 25.5 14.9931 25.5L9.56073 25.5Z" fill="url(#paint0_linear_207_8204)"/>
</g>
<path fill-rule="evenodd" clip-rule="evenodd" d="M9.56073 25.5C8.75811 25.5 8.28254 26.3979 8.73351 27.0618L24.1659 49.7821C24.5627 50.3663 25.4236 50.3663 25.8204 49.7821L41.2528 27.0618C41.7037 26.3979 41.2282 25.5 40.4255 25.5L34.9931 25.5C34.4409 25.5 33.9931 25.0522 33.9931 24.5L33.9931 9.99996C33.9931 9.44768 33.5454 8.99996 32.9931 8.99996L16.9931 8.99996C16.4409 8.99996 15.9931 9.44768 15.9931 9.99996L15.9931 24.5C15.9931 25.0522 15.5454 25.5 14.9931 25.5L9.56073 25.5Z" fill="url(#paint1_linear_207_8204)"/>
<g filter="url(#filter1_f_207_8204)">
<mask id="path-3-outside-1_207_8204" maskUnits="userSpaceOnUse" x="3.74194" y="3.4685" width="43" height="52" fill="black">
<rect fill="white" x="3.74194" y="3.4685" width="43" height="52"/>
<path fill-rule="evenodd" clip-rule="evenodd" d="M8.25969 25.21C7.46222 25.21 6.98558 26.0977 7.42613 26.7624L24.1664 52.0209C24.5619 52.6177 25.438 52.6177 25.8335 52.0209L42.5738 26.7624C43.0144 26.0977 42.5377 25.21 41.7403 25.21L35.6662 25.21C35.1139 25.21 34.6662 24.7623 34.6662 24.21L34.6662 8.04827C34.6662 7.49599 34.2185 7.04827 33.6662 7.04827L16.3336 7.04827C15.7814 7.04827 15.3336 7.49598 15.3336 8.04827L15.3336 24.21C15.3336 24.7623 14.8859 25.21 14.3336 25.21L8.25969 25.21Z"/>
</mask>
<path d="M42.5738 26.7624L40.0732 25.1051L42.5738 26.7624ZM7.42613 26.7624L9.92679 25.1051L7.42613 26.7624ZM24.1664 52.0209L26.6671 50.3636L24.1664 52.0209ZM25.8335 52.0209L23.3329 50.3636L25.8335 52.0209ZM26.6671 50.3636L9.92679 25.1051L4.92548 28.4197L21.6658 53.6783L26.6671 50.3636ZM40.0732 25.1051L23.3329 50.3636L28.3342 53.6783L45.0745 28.4197L40.0732 25.1051ZM35.6662 28.21L41.7403 28.21L41.7403 22.21L35.6662 22.21L35.6662 28.21ZM31.6662 8.04827L31.6662 24.21L37.6662 24.21L37.6662 8.04827L31.6662 8.04827ZM16.3336 10.0483L33.6662 10.0483L33.6662 4.04827L16.3336 4.04827L16.3336 10.0483ZM18.3336 24.21L18.3336 8.04827L12.3336 8.04827L12.3336 24.21L18.3336 24.21ZM8.25969 28.21L14.3336 28.21L14.3336 22.21L8.25969 22.21L8.25969 28.21ZM12.3336 24.21C12.3336 23.1054 13.2291 22.21 14.3336 22.21L14.3336 28.21C16.5428 28.21 18.3336 26.4191 18.3336 24.21L12.3336 24.21ZM16.3336 4.04827C14.1245 4.04827 12.3336 5.83914 12.3336 8.04827L18.3336 8.04827C18.3336 9.15283 17.4382 10.0483 16.3336 10.0483L16.3336 4.04827ZM37.6662 8.04827C37.6662 5.83913 35.8753 4.04827 33.6662 4.04827L33.6662 10.0483C32.5616 10.0483 31.6662 9.15284 31.6662 8.04827L37.6662 8.04827ZM35.6662 22.21C36.7708 22.21 37.6662 23.1054 37.6662 24.21L31.6662 24.21C31.6662 26.4191 33.457 28.21 35.6662 28.21L35.6662 22.21ZM45.0745 28.4197C46.8367 25.7608 44.9302 22.21 41.7403 22.21L41.7403 28.21C40.1453 28.21 39.1921 26.4345 40.0732 25.1051L45.0745 28.4197ZM9.92679 25.1051C10.8079 26.4345 9.85462 28.21 8.25969 28.21L8.25969 22.21C5.06982 22.21 3.16326 25.7608 4.92548 28.4197L9.92679 25.1051ZM21.6658 53.6783C23.2478 56.0652 26.7522 56.0652 28.3342 53.6783L23.3329 50.3636C24.1239 49.1701 25.8761 49.1701 26.6671 50.3636L21.6658 53.6783Z" fill="url(#paint2_linear_207_8204)" mask="url(#path-3-outside-1_207_8204)"/>
</g>
<mask id="path-5-outside-2_207_8204" maskUnits="userSpaceOnUse" x="5.42725" y="5.22021" width="40" height="48" fill="black">
<rect fill="white" x="5.42725" y="5.22021" width="40" height="48"/>
<path fill-rule="evenodd" clip-rule="evenodd" d="M9.56073 25.5C8.75811 25.5 8.28254 26.3979 8.73351 27.0618L24.1659 49.7821C24.5627 50.3663 25.4236 50.3663 25.8204 49.7821L41.2528 27.0618C41.7037 26.3979 41.2282 25.5 40.4255 25.5L34.9931 25.5C34.4409 25.5 33.9931 25.0522 33.9931 24.5L33.9931 9.99996C33.9931 9.44768 33.5454 8.99996 32.9931 8.99996L16.9931 8.99996C16.4409 8.99996 15.9931 9.44768 15.9931 9.99996L15.9931 24.5C15.9931 25.0522 15.5454 25.5 14.9931 25.5L9.56073 25.5Z"/>
</mask>
<path d="M41.2528 27.0618L43.7344 28.7475L41.2528 27.0618ZM8.73351 27.0618L6.25185 28.7475L8.73351 27.0618ZM24.1659 49.7821L21.6843 51.4677L24.1659 49.7821ZM25.8204 49.7821L23.3387 48.0965L25.8204 49.7821ZM26.6476 48.0965L11.2152 25.3762L6.25185 28.7475L21.6843 51.4677L26.6476 48.0965ZM38.7711 25.3762L23.3387 48.0965L28.302 51.4677L43.7344 28.7475L38.7711 25.3762ZM34.9931 28.5L40.4255 28.5L40.4255 22.5L34.9931 22.5L34.9931 28.5ZM30.9931 9.99996L30.9931 24.5L36.9931 24.5L36.9931 9.99996L30.9931 9.99996ZM16.9931 12L32.9931 12L32.9931 5.99996L16.9931 5.99996L16.9931 12ZM18.9931 24.5L18.9931 9.99996L12.9931 9.99996L12.9931 24.5L18.9931 24.5ZM9.56073 28.5L14.9931 28.5L14.9931 22.5L9.56073 22.5L9.56073 28.5ZM12.9931 24.5C12.9931 23.3954 13.8886 22.5 14.9931 22.5L14.9931 28.5C17.2023 28.5 18.9931 26.7091 18.9931 24.5L12.9931 24.5ZM16.9931 5.99996C14.784 5.99996 12.9931 7.79082 12.9931 9.99996L18.9931 9.99996C18.9931 11.1045 18.0977 12 16.9931 12L16.9931 5.99996ZM36.9931 9.99996C36.9931 7.79082 35.2023 5.99996 32.9931 5.99996L32.9931 12C31.8886 12 30.9931 11.1045 30.9931 9.99996L36.9931 9.99996ZM34.9931 22.5C36.0977 22.5 36.9931 23.3954 36.9931 24.5L30.9931 24.5C30.9931 26.7091 32.784 28.5 34.9931 28.5L34.9931 22.5ZM43.7344 28.7475C45.5383 26.0917 43.636 22.5 40.4255 22.5L40.4255 28.5C38.8203 28.5 37.8692 26.7041 38.7711 25.3762L43.7344 28.7475ZM11.2152 25.3762C12.1171 26.7041 11.166 28.5 9.56073 28.5L9.56073 22.5C6.35025 22.5 4.44796 26.0917 6.25185 28.7475L11.2152 25.3762ZM21.6843 51.4677C23.2714 53.8044 26.7149 53.8044 28.302 51.4677L23.3387 48.0965C24.1323 46.9281 25.854 46.9281 26.6476 48.0965L21.6843 51.4677Z" fill="url(#paint3_linear_207_8204)" mask="url(#path-5-outside-2_207_8204)"/>
<defs>
<filter id="filter0_f_207_8204" x="2.45908" y="2.9" width="45.0682" height="53.4202" filterUnits="userSpaceOnUse" color-interpolation-filters="sRGB">
<feFlood flood-opacity="0" result="BackgroundImageFix"/>
<feBlend mode="normal" in="SourceGraphic" in2="BackgroundImageFix" result="shape"/>
<feGaussianBlur stdDeviation="3.05" result="effect1_foregroundBlur_207_8204"/>
</filter>
<filter id="filter1_f_207_8204" x="0.35293" y="0.14834" width="49.294" height="59.2202" filterUnits="userSpaceOnUse" color-interpolation-filters="sRGB">
<feFlood flood-opacity="0" result="BackgroundImageFix"/>
<feBlend mode="normal" in="SourceGraphic" in2="BackgroundImageFix" result="shape"/>
<feGaussianBlur stdDeviation="1.95" result="effect1_foregroundBlur_207_8204"/>
</filter>
<linearGradient id="paint0_linear_207_8204" x1="23.2007" y1="15.5296" x2="22.9887" y2="44.5782" gradientUnits="userSpaceOnUse">
<stop stop-color="#DA314A" stop-opacity="0"/>
<stop offset="0.781116" stop-color="#DA314A"/>
<stop offset="0.989011" stop-color="#FD4E51"/>
</linearGradient>
<linearGradient id="paint1_linear_207_8204" x1="23.2007" y1="15.5296" x2="22.9887" y2="44.5782" gradientUnits="userSpaceOnUse">
<stop stop-color="#DA314A" stop-opacity="0"/>
<stop offset="0.781116" stop-color="#DA314A"/>
<stop offset="0.989011" stop-color="#FD4E51"/>
</linearGradient>
<linearGradient id="paint2_linear_207_8204" x1="32.8486" y1="55.5448" x2="37.9988" y2="11.6774" gradientUnits="userSpaceOnUse">
<stop offset="0.648488" stop-color="#A22255"/>
<stop offset="1" stop-color="#A22255" stop-opacity="0"/>
</linearGradient>
<linearGradient id="paint3_linear_207_8204" x1="31.8911" y1="50.2202" x2="32.9465" y2="11.6341" gradientUnits="userSpaceOnUse">
<stop offset="0.793823" stop-color="#FF667D"/>
<stop offset="1" stop-color="#FF566F" stop-opacity="0"/>
</linearGradient>
</defs>
</svg>
