<svg width="112" height="108" viewBox="0 0 112 108" fill="none" xmlns="http://www.w3.org/2000/svg">
<path fill-rule="evenodd" clip-rule="evenodd" d="M54 105.5H2V102.5L53 102.5L72 91L74 93L54 105.5Z" fill="#373A47"/>
<mask id="mask0_0_1" style="mask-type:alpha" maskUnits="userSpaceOnUse" x="2" y="91" width="72" height="15">
<path fill-rule="evenodd" clip-rule="evenodd" d="M54 105.5H2V102.5L53 102.5L72 91L74 93L54 105.5Z" fill="#373A47"/>
</mask>
<g mask="url(#mask0_0_1)">
<g filter="url(#filter0_f_0_1)">
<rect width="80.9401" height="60.0915" transform="matrix(0.878443 -0.477847 -0.477847 -0.878443 -68.2855 152)" fill="url(#paint0_linear_0_1)"/>
</g>
<g filter="url(#filter1_f_0_1)">
<rect width="79.7763" height="60.0915" transform="matrix(0.878443 -0.477847 -0.477847 -0.878443 -66.2059 150.869)" fill="url(#paint1_linear_0_1)"/>
</g>
</g>
<path d="M40 58H62V55H40V58Z" fill="#373A47"/>
<mask id="mask1_0_1" style="mask-type:alpha" maskUnits="userSpaceOnUse" x="40" y="55" width="22" height="3">
<path d="M40 58H62V55H40V58Z" fill="#373A47"/>
</mask>
<g mask="url(#mask1_0_1)">
</g>
<path fill-rule="evenodd" clip-rule="evenodd" d="M54 2H2V5L53 5L72 16.5L74 14.5L54 2Z" fill="#373A47"/>
<mask id="mask2_0_1" style="mask-type:alpha" maskUnits="userSpaceOnUse" x="2" y="2" width="72" height="15">
<path fill-rule="evenodd" clip-rule="evenodd" d="M54 2H2V5L53 5L72 16.5L74 14.5L54 2Z" fill="#373A47"/>
</mask>
<g mask="url(#mask2_0_1)">
<g filter="url(#filter2_f_0_1)">
<rect x="-62.7275" y="-42.9106" width="74.0564" height="54.9809" transform="rotate(28.5449 -62.7275 -42.9106)" fill="url(#paint2_linear_0_1)"/>
</g>
<g filter="url(#filter3_f_0_1)">
<rect x="-60.8248" y="-41.8757" width="72.9916" height="54.9809" transform="rotate(28.5449 -60.8248 -41.8757)" fill="url(#paint3_linear_0_1)"/>
</g>
</g>
<defs>
<filter id="filter0_f_0_1" x="-99.0949" y="58.4411" width="104.006" height="95.6538" filterUnits="userSpaceOnUse" color-interpolation-filters="sRGB">
<feFlood flood-opacity="0" result="BackgroundImageFix"/>
<feBlend mode="normal" in="SourceGraphic" in2="BackgroundImageFix" result="shape"/>
<feGaussianBlur stdDeviation="1.04746" result="effect1_foregroundBlur_0_1"/>
</filter>
<filter id="filter1_f_0_1" x="-96.1076" y="58.7738" width="101.168" height="93.2821" filterUnits="userSpaceOnUse" color-interpolation-filters="sRGB">
<feFlood flood-opacity="0" result="BackgroundImageFix"/>
<feBlend mode="normal" in="SourceGraphic" in2="BackgroundImageFix" result="shape"/>
<feGaussianBlur stdDeviation="0.593564" result="effect1_foregroundBlur_0_1"/>
</filter>
<filter id="filter2_f_0_1" x="-90.9168" y="-44.8274" width="95.1603" height="87.5187" filterUnits="userSpaceOnUse" color-interpolation-filters="sRGB">
<feFlood flood-opacity="0" result="BackgroundImageFix"/>
<feBlend mode="normal" in="SourceGraphic" in2="BackgroundImageFix" result="shape"/>
<feGaussianBlur stdDeviation="0.958381" result="effect1_foregroundBlur_0_1"/>
</filter>
<filter id="filter3_f_0_1" x="-88.1835" y="-42.9619" width="92.5637" height="85.3487" filterUnits="userSpaceOnUse" color-interpolation-filters="sRGB">
<feFlood flood-opacity="0" result="BackgroundImageFix"/>
<feBlend mode="normal" in="SourceGraphic" in2="BackgroundImageFix" result="shape"/>
<feGaussianBlur stdDeviation="0.543083" result="effect1_foregroundBlur_0_1"/>
</filter>
<linearGradient id="paint0_linear_0_1" x1="96.1314" y1="30.0457" x2="-21.9693" y2="30.0457" gradientUnits="userSpaceOnUse">
<stop stop-color="#03BF90"/>
<stop offset="0.07" stop-color="#03BF90"/>
<stop offset="0.541666" stop-color="#03BF90" stop-opacity="0"/>
</linearGradient>
<linearGradient id="paint1_linear_0_1" x1="94.7492" y1="30.0457" x2="-21.6534" y2="30.0457" gradientUnits="userSpaceOnUse">
<stop stop-color="#03BF90"/>
<stop offset="0.266666" stop-color="#D0C0FF" stop-opacity="0"/>
</linearGradient>
<linearGradient id="paint2_linear_0_1" x1="25.2282" y1="-15.4202" x2="-82.8284" y2="-15.4202" gradientUnits="userSpaceOnUse">
<stop stop-color="#03BF90"/>
<stop offset="0.07" stop-color="#03BF90"/>
<stop offset="0.541666" stop-color="#03BF90" stop-opacity="0"/>
</linearGradient>
<linearGradient id="paint3_linear_0_1" x1="25.8662" y1="-14.3853" x2="-80.6366" y2="-14.3853" gradientUnits="userSpaceOnUse">
<stop stop-color="#03BF90"/>
<stop offset="0.266666" stop-color="#D0C0FF" stop-opacity="0"/>
</linearGradient>
</defs>
</svg>
