<svg width="315" height="185" viewBox="0 0 315 185" fill="none" xmlns="http://www.w3.org/2000/svg">
<g filter="url(#filter0_d_330_8277)">
<path d="M102.608 95.32L117.122 130.115L109.952 133.105L95.4386 98.3104L102.608 95.32ZM122.669 104.403L125.001 109.995L109.181 116.594L106.849 111.002L122.669 104.403ZM118.141 88.8407L120.484 94.4566L102.991 101.753L100.648 96.1374L118.141 88.8407ZM136.49 88.1731L139.058 120.965L131.434 124.145L129.849 83.957L134.701 81.9335L136.49 88.1731ZM156.383 113.738L134.865 88.8509L131.618 83.2194L136.517 81.1759L164.031 110.548L156.383 113.738ZM150.551 100.965L152.893 106.581L134.516 114.246L132.173 108.63L150.551 100.965ZM162.324 70.4111L176.838 105.206L169.693 108.187L155.179 73.3916L162.324 70.4111ZM205.546 86.6661L207.879 92.2582L190.362 99.5649L188.03 93.9728L205.546 86.6661ZM178.166 63.803L192.68 98.5979L185.511 101.588L170.997 66.7934L178.166 63.803ZM206.77 51.8719L216.059 76.3613L210.324 78.7537L199.433 54.9321L206.77 51.8719ZM212.44 86.6523C212.015 85.6327 212.013 84.6421 212.435 83.6806C212.866 82.6965 213.663 81.9619 214.826 81.4767C216.005 80.985 217.088 80.9354 218.075 81.3281C219.055 81.7048 219.758 82.403 220.183 83.4226C220.595 84.4104 220.593 85.393 220.178 86.3705C219.763 87.348 218.966 88.0826 217.787 88.5743C216.624 89.0594 215.541 89.109 214.538 88.723C213.552 88.3303 212.852 87.6401 212.44 86.6523Z" fill="#DA314A"/>
</g>
<defs>
<filter id="filter0_d_330_8277" x="95.4387" y="51.7822" width="126.22" height="83.9151" filterUnits="userSpaceOnUse" color-interpolation-filters="sRGB">
<feFlood flood-opacity="0" result="BackgroundImageFix"/>
<feColorMatrix in="SourceAlpha" type="matrix" values="0 0 0 0 0 0 0 0 0 0 0 0 0 0 0 0 0 0 127 0" result="hardAlpha"/>
<feOffset dy="2.20956"/>
<feComposite in2="hardAlpha" operator="out"/>
<feColorMatrix type="matrix" values="0 0 0 0 0 0 0 0 0 0 0 0 0 0 0 0 0 0 0.45 0"/>
<feBlend mode="normal" in2="BackgroundImageFix" result="effect1_dropShadow_330_8277"/>
<feBlend mode="normal" in="SourceGraphic" in2="effect1_dropShadow_330_8277" result="shape"/>
</filter>
</defs>
</svg>
