<?xml version="1.0" encoding="UTF-8"?><svg id="a" xmlns="http://www.w3.org/2000/svg" viewBox="0 0 450.55 504"><path d="M138.79,476.75c16.65,12.37,34.3,21.71,52.69,26.97,4.18,1.2,8.23-2.2,7.67-6.51l-27.16-206.99c-3.11-23.72-17.09-44.64-37.81-56.6L9.82,161.89c-2.56-1.47-5.78.02-6.36,2.91-2.27,11.38-3.46,23.1-3.46,35.06,0,4.23.16,8.6.45,13.07.27,4.01,2.36,7.69,5.69,9.94l75.21,50.63c10.19,6.86,17.25,17.48,19.63,29.53l4.96,25.11c.27,1.35-1.14,2.42-2.37,1.8l-79.47-39.87c-3.5-1.76-7.38,1.61-6.13,5.32,6.6,19.65,14.88,39.62,24.63,59.07,1.6,3.2,4.15,5.83,7.27,7.59l66.95,37.69c2.33,1.31,3.98,3.58,4.49,6.21l12.41,62.84c.63,3.19,2.46,6.01,5.07,7.95Z" fill="#fff"/><path d="M369.19,273.5l75.21-50.63c3.34-2.25,5.43-5.93,5.69-9.94.3-4.48.45-8.84.45-13.07,0-11.96-1.19-23.67-3.46-35.06-.58-2.89-3.81-4.38-6.36-2.91l-124.35,71.74c-20.72,11.96-34.7,32.88-37.81,56.6l-27.16,206.99c-.55,4.22,3.38,7.73,7.47,6.56,18.46-5.25,36.18-14.61,52.88-27.03,2.61-1.94,4.44-4.76,5.07-7.95l12.41-62.84c.52-2.63,2.16-4.9,4.49-6.21l66.95-37.69c3.12-1.76,5.67-4.39,7.27-7.59,9.74-19.45,18.03-39.42,24.63-59.07,1.25-3.71-2.63-7.08-6.13-5.32l-79.47,39.87c-1.23.62-2.64-.45-2.37-1.8l4.96-25.11c2.38-12.05,9.44-22.67,19.63-29.53Z" fill="#fff"/><path d="M425.35,107.94C387.85,43.82,312.33,0,225.28,0S62.7,43.82,25.2,107.94c-1.97,3.37-.47,7.71,3.15,9.18l161.01,65.05c23.04,9.31,48.8,9.31,71.84,0l161.01-65.05c3.62-1.46,5.12-5.81,3.15-9.18ZM308.36,76.54l-71.71,53.55c-6.74,5.04-16,5.04-22.74,0l-71.71-53.55c-5.99-4.47-2.82-13.99,4.65-13.99h156.87c7.47,0,10.63,9.52,4.65,13.99Z" fill="#fff"/></svg>