<svg width="72" height="111" viewBox="0 0 72 111" fill="none" xmlns="http://www.w3.org/2000/svg">
<g filter="url(#filter0_f_46_91)">
<path fill-rule="evenodd" clip-rule="evenodd" d="M29.1195 25.674C28.7515 24.9935 28.3839 24.3407 28.0262 23.7054C25.2495 18.7742 23.0667 14.8977 25.9099 7.33781C27.4757 3.17456 27.8357 4.37694 28.6279 7.0231C28.6655 7.14856 28.704 7.27727 28.7437 7.40881C28.6703 7.8016 28.5863 8.22569 28.4974 8.67456C27.4592 13.9167 25.7519 22.5378 32.3406 24.135C39.0042 25.7505 50.3413 40.7521 50.1424 49.3119C53.9574 50.665 55.4843 56.1232 55.2287 58.7214C54.1817 69.3596 49.8064 71.8428 47.5435 73.127C47.0657 73.3982 46.6821 73.6159 46.4439 73.8456C49.9692 72.9533 58.8187 66.2165 60.8235 56.6869C61.6803 52.6142 57.0925 41.206 54.3669 34.4283C54.0589 33.6625 53.7748 32.9559 53.5249 32.3256C67.3992 53.0776 64.3673 66.1719 62.2346 75.3828L62.2345 75.3832C62.1309 75.8304 62.0295 76.2684 61.9322 76.6977C60.663 82.2998 58.3302 86.8354 55.3079 90.2254C50.3552 96.3604 42.7972 100.631 35.709 100.39C20.3992 100.006 7.22016 84.53 8.12668 70.3278C8.58177 65.1807 10.3688 60.7876 13.1733 57.2974C15.0737 54.2581 17.5974 51.4734 21.4203 47.255C27.7655 40.2534 32.3435 31.6359 29.1195 25.674Z" fill="url(#paint0_linear_46_91)" fill-opacity="0.7"/>
</g>
<g filter="url(#filter1_f_46_91)">
<path fill-rule="evenodd" clip-rule="evenodd" d="M29.4371 13.5528C29.1503 13.6559 28.8959 13.7704 28.6787 13.8967C29.1656 14.2856 30.1096 14.7411 31.3031 15.3169C33.7815 16.5126 37.3357 18.2274 40.1081 20.9439C44.7136 25.4566 49.6996 35.1448 49.7852 43.1854C53.4189 44.3335 53.8019 48.519 53.6441 50.9658C52.9344 61.9669 48.297 66.29 46.5103 67.9557C46.3263 68.1272 46.1725 68.2705 46.0564 68.3901C49.3459 67.4398 57.032 62.7015 58.6152 53.6929C59.1851 50.4504 59.0693 48.4869 59.0049 47.3946C58.9578 46.596 58.9381 46.263 59.2339 46.2363C59.9342 46.1729 60.2725 46.4113 61.9156 52.4615C63.3167 57.6206 62.8253 64.6872 62.6501 66.6569C62.3971 68.3226 62.0968 69.8714 61.8204 71.2969L61.8201 71.2986C61.7638 71.5892 61.7084 71.8747 61.6547 72.1551C60.6372 77.4612 58.5818 81.7976 55.8395 85.0778C51.3731 90.9864 44.402 95.229 37.7288 95.2292C23.3073 95.3584 10.4101 81.2535 10.8107 67.8943C11.0752 63.0463 12.6185 58.8641 15.149 55.4977C16.8404 52.5867 19.1261 49.8932 22.5872 45.8146L22.8738 45.477C28.4891 38.8622 32.9584 33.5972 32.4785 26.3142C32.1851 21.8632 30.4245 19.1239 29.152 17.1441C28.307 15.8294 27.6772 14.8496 27.8351 13.9258C27.9132 13.4689 28.4839 13.3465 29.4371 13.5528ZM11.2403 39.8624C9.86509 43.3459 10.1967 46.2772 11.4126 49.4063C12.0654 47.0839 13.3897 43.3327 16.6508 42.9217C18.3952 42.7018 19.3858 39.0747 17.0177 37.6535C15.2528 36.5943 12.1058 37.6702 11.2403 39.8624Z" fill="url(#paint1_linear_46_91)"/>
</g>
<g filter="url(#filter2_f_46_91)">
<path fill-rule="evenodd" clip-rule="evenodd" d="M29.9937 22.4722C29.6837 22.5604 29.408 22.6605 29.1714 22.7728C29.6775 23.1561 30.6693 23.6169 31.9233 24.1996C34.5272 25.4094 38.2616 27.1445 41.1245 29.8014C45.8803 34.215 50.8547 43.5333 50.6545 51.1368C54.4944 52.3387 54.7517 56.3076 54.4944 58.6155C53.3373 68.992 48.227 72.9298 46.258 74.447C46.0553 74.6032 45.8858 74.7338 45.7574 74.8431C49.3057 74.0504 57.6876 69.8179 59.7055 61.353C60.4318 58.3061 60.3793 56.4463 60.3501 55.4117C60.3288 54.6553 60.3199 54.3399 60.6368 54.3241C61.3872 54.2867 61.7398 54.5228 63.2755 60.2949C64.5852 65.2173 63.8036 71.8825 63.5451 73.7379C63.2145 75.3042 62.8376 76.7585 62.4908 78.0971L62.49 78.1C62.4194 78.3724 62.35 78.6401 62.2826 78.9029C61.0036 83.8849 58.6517 87.9172 55.6047 90.9297C50.6196 96.3732 43.018 100.161 35.8887 99.9472C20.4793 99.6065 7.21455 85.8592 8.12697 73.2436C8.5852 68.6697 10.3851 64.7661 13.2098 61.6652C15.1222 58.9673 17.6615 56.4944 21.5071 52.7495L21.8254 52.4395C28.0634 46.3667 33.0285 41.5333 32.7799 34.6332C32.628 30.4163 30.8467 27.7704 29.5592 25.858C28.7043 24.5881 28.0672 23.6417 28.2693 22.7735C28.3693 22.3441 28.9832 22.2467 29.9937 22.4722ZM13.7668 40.9929C12.1715 44.2417 12.4194 47.0233 13.6047 50.0202C14.3862 47.8458 15.9369 44.3423 19.4352 44.0584C21.3065 43.9066 22.4962 40.5097 20.0182 39.0903C18.1714 38.0323 14.7708 38.9483 13.7668 40.9929Z" fill="url(#paint2_radial_46_91)"/>
</g>
<path fill-rule="evenodd" clip-rule="evenodd" d="M29.9937 22.4722C29.6837 22.5604 29.408 22.6605 29.1714 22.7728C29.6775 23.1561 30.6693 23.6169 31.9233 24.1996C34.5272 25.4094 38.2616 27.1445 41.1245 29.8014C45.8803 34.215 50.8547 43.5333 50.6545 51.1368C54.4944 52.3387 54.7517 56.3076 54.4944 58.6155C53.3373 68.992 48.227 72.9298 46.258 74.447C46.0553 74.6032 45.8858 74.7338 45.7574 74.8431C49.3057 74.0504 57.6876 69.8179 59.7055 61.353C60.4318 58.3061 60.3793 56.4463 60.3501 55.4117C60.3288 54.6553 60.3199 54.3399 60.6368 54.3241C61.3872 54.2867 61.7398 54.5228 63.2755 60.2949C64.5852 65.2173 63.8036 71.8825 63.5451 73.7379C63.2145 75.3042 62.8376 76.7585 62.4908 78.0971L62.49 78.1C62.4194 78.3724 62.35 78.6401 62.2826 78.9029C61.0036 83.8849 58.6517 87.9172 55.6047 90.9297C50.6196 96.3732 43.018 100.161 35.8887 99.9472C20.4793 99.6065 7.21455 85.8592 8.12697 73.2436C8.5852 68.6697 10.3851 64.7661 13.2098 61.6652C15.1222 58.9673 17.6615 56.4944 21.5071 52.7495L21.8254 52.4395C28.0634 46.3667 33.0285 41.5333 32.7799 34.6332C32.628 30.4163 30.8467 27.7704 29.5592 25.858C28.7043 24.5881 28.0672 23.6417 28.2693 22.7735C28.3693 22.3441 28.9832 22.2467 29.9937 22.4722ZM13.7668 40.9929C12.1715 44.2417 12.4194 47.0233 13.6047 50.0202C14.3862 47.8458 15.9369 44.3423 19.4352 44.0584C21.3065 43.9066 22.4962 40.5097 20.0182 39.0903C18.1714 38.0323 14.7708 38.9483 13.7668 40.9929Z" fill="url(#paint3_radial_46_91)"/>
<path fill-rule="evenodd" clip-rule="evenodd" d="M29.9941 22.4755C29.6839 22.5661 29.4081 22.6688 29.1714 22.7843C29.6775 23.1779 30.6693 23.6511 31.9233 24.2493C34.5272 25.4917 38.2616 27.2734 41.1245 30.0017C45.8802 34.5339 50.8547 44.1025 50.6545 51.9103C54.4943 53.1445 54.7517 57.22 54.4943 59.5899C53.3373 70.2452 48.227 74.2887 46.258 75.8467C46.0552 76.0071 45.8858 76.1412 45.7574 76.2534C49.3057 75.4395 57.6876 71.0933 59.7054 62.4009C60.4317 59.2722 60.3793 57.3624 60.3501 56.3C60.3288 55.5233 60.3199 55.1994 60.6368 55.1832C61.3871 55.1448 61.7398 55.3873 63.2755 61.3144C64.5851 66.3689 63.8036 73.2127 63.5452 75.1184C63.2145 76.7267 62.8376 78.2202 62.4908 79.5947L62.4903 79.5963L62.4884 79.604L62.4878 79.6065C62.4179 79.8832 62.3493 80.1551 62.2826 80.4222C61.0039 85.5368 58.6527 89.6769 55.6067 92.77C50.6216 98.361 43.019 102.252 35.8887 102.032C20.4793 101.682 7.21455 87.5655 8.12697 74.611C8.58517 69.9146 10.3849 65.9064 13.2091 62.7223C15.1216 59.9515 17.6611 57.4121 21.5071 53.5661L21.8254 53.2478C28.0634 47.0119 33.0285 42.0485 32.7799 34.9631C32.628 30.6329 30.8467 27.9159 29.5592 25.9521C28.7043 24.6481 28.0672 23.6763 28.2693 22.7848C28.3693 22.3438 28.9834 22.2438 29.9941 22.4755ZM13.7668 41.4936C12.1715 44.8297 12.4194 47.686 13.6047 50.7635C14.3862 48.5307 15.9369 44.9331 19.4352 44.6415C21.3065 44.4856 22.4962 40.9975 20.0182 39.5399C18.1714 38.4535 14.7708 39.3941 13.7668 41.4936Z" fill="url(#paint4_linear_46_91)"/>
<g style="mix-blend-mode:color-dodge" opacity="0.45" filter="url(#filter3_f_46_91)">
<ellipse cx="36.2266" cy="82.1172" rx="16.3651" ry="19.9238" fill="#00293B"/>
</g>
<g filter="url(#filter4_f_46_91)">
<path d="M16.4931 79.2311C16.941 88.5681 20.9775 92.848 25.5261 95.6918C34.7998 101.49 41.7509 99.0312 43.4573 98.1711C47.8203 95.9722 49.819 92.4972 49.598 87.8914C49.3771 83.2856 47.2283 81.397 44.2758 77.8983C44.4952 82.4721 39.9133 85.3891 37.0253 83.235C29.7011 77.7721 40.1718 67.0184 41.5865 59.1736C43.0012 51.3287 40.6471 39.5909 38.7139 38.5726C38.7139 38.5726 37.4547 49.1407 30.9403 56.7216C24.426 64.3025 16.0452 69.894 16.4931 79.2311Z" fill="url(#paint5_linear_46_91)"/>
</g>
<path d="M14.989 80.93C14.989 89.3221 18.8157 93.3336 23.2228 96.0794C32.208 101.678 39.2689 99.7719 41.0146 99.0741C45.478 97.2899 47.6409 94.2598 47.6409 90.1201C47.6409 85.9804 45.585 84.1944 42.8036 80.93C42.8036 85.0409 38.0872 87.4596 35.3057 85.4037C28.2517 80.1899 39.2256 70.9971 41.0146 64.0233C42.8036 57.0495 41.0146 46.4226 39.1324 45.4263C39.1324 45.4263 37.6416 54.436 30.7715 60.9538C23.9014 67.4716 14.9889 72.5379 14.989 80.93Z" fill="url(#paint6_linear_46_91)"/>
<g style="mix-blend-mode:plus-lighter" filter="url(#filter5_f_46_91)">
<ellipse cx="36.9935" cy="81.0377" rx="15.7852" ry="17.9516" transform="rotate(13.4933 36.9935 81.0377)" fill="#07372B" fill-opacity="0.45"/>
</g>
<defs>
<filter id="filter0_f_46_91" x="4.08252" y="0.616211" width="64.0034" height="103.783" filterUnits="userSpaceOnUse" color-interpolation-filters="sRGB">
<feFlood flood-opacity="0" result="BackgroundImageFix"/>
<feBlend mode="normal" in="SourceGraphic" in2="BackgroundImageFix" result="shape"/>
<feGaussianBlur stdDeviation="2" result="effect1_foregroundBlur_46_91"/>
</filter>
<filter id="filter1_f_46_91" x="3.5457" y="6.65605" width="66.1319" height="95.3739" filterUnits="userSpaceOnUse" color-interpolation-filters="sRGB">
<feFlood flood-opacity="0" result="BackgroundImageFix"/>
<feBlend mode="normal" in="SourceGraphic" in2="BackgroundImageFix" result="shape"/>
<feGaussianBlur stdDeviation="3.4" result="effect1_foregroundBlur_46_91"/>
</filter>
<filter id="filter2_f_46_91" x="5.98252" y="20.2545" width="60.1304" height="81.8016" filterUnits="userSpaceOnUse" color-interpolation-filters="sRGB">
<feFlood flood-opacity="0" result="BackgroundImageFix"/>
<feBlend mode="normal" in="SourceGraphic" in2="BackgroundImageFix" result="shape"/>
<feGaussianBlur stdDeviation="1.05" result="effect1_foregroundBlur_46_91"/>
</filter>
<filter id="filter3_f_46_91" x="11.0615" y="53.3934" width="50.3302" height="57.4477" filterUnits="userSpaceOnUse" color-interpolation-filters="sRGB">
<feFlood flood-opacity="0" result="BackgroundImageFix"/>
<feBlend mode="normal" in="SourceGraphic" in2="BackgroundImageFix" result="shape"/>
<feGaussianBlur stdDeviation="4.4" result="effect1_foregroundBlur_46_91"/>
</filter>
<filter id="filter4_f_46_91" x="12.4759" y="34.5728" width="41.1386" height="68.8555" filterUnits="userSpaceOnUse" color-interpolation-filters="sRGB">
<feFlood flood-opacity="0" result="BackgroundImageFix"/>
<feBlend mode="normal" in="SourceGraphic" in2="BackgroundImageFix" result="shape"/>
<feGaussianBlur stdDeviation="2" result="effect1_foregroundBlur_46_91"/>
</filter>
<filter id="filter5_f_46_91" x="12.2787" y="54.3938" width="49.4295" height="53.288" filterUnits="userSpaceOnUse" color-interpolation-filters="sRGB">
<feFlood flood-opacity="0" result="BackgroundImageFix"/>
<feBlend mode="normal" in="SourceGraphic" in2="BackgroundImageFix" result="shape"/>
<feGaussianBlur stdDeviation="4.4" result="effect1_foregroundBlur_46_91"/>
</filter>
<linearGradient id="paint0_linear_46_91" x1="33.3871" y1="115.54" x2="36.7746" y2="4.69695" gradientUnits="userSpaceOnUse">
<stop stop-color="#039766"/>
<stop offset="0.851666" stop-color="#015AAF"/>
<stop offset="0.971666" stop-color="#01509C"/>
</linearGradient>
<linearGradient id="paint1_linear_46_91" x1="35.0937" y1="13.2361" x2="37.8778" y2="95.2335" gradientUnits="userSpaceOnUse">
<stop offset="0.185" stop-color="#003A7C"/>
<stop offset="1" stop-color="#0CB094"/>
</linearGradient>
<radialGradient id="paint2_radial_46_91" cx="0" cy="0" r="1" gradientUnits="userSpaceOnUse" gradientTransform="translate(28.5399 97.3716) rotate(-53.9673) scale(60.3028 70.5198)">
<stop offset="0.155" stop-color="#00C58B"/>
<stop offset="0.426667" stop-color="#0AA296"/>
<stop offset="0.61" stop-color="#108098"/>
<stop offset="1" stop-color="#004F9C"/>
</radialGradient>
<radialGradient id="paint3_radial_46_91" cx="0" cy="0" r="1" gradientUnits="userSpaceOnUse" gradientTransform="translate(28.5399 97.3716) rotate(-53.9673) scale(60.3028 70.5198)">
<stop offset="0.155" stop-color="#00C58B"/>
<stop offset="0.426667" stop-color="#0AA296"/>
<stop offset="0.61" stop-color="#108098"/>
<stop offset="1" stop-color="#004F9C"/>
</radialGradient>
<linearGradient id="paint4_linear_46_91" x1="36.0477" y1="22.3545" x2="36.0477" y2="102.041" gradientUnits="userSpaceOnUse">
<stop stop-color="#004692" stop-opacity="0.58"/>
<stop offset="0.626666" stop-color="#00D6A1" stop-opacity="0"/>
</linearGradient>
<linearGradient id="paint5_linear_46_91" x1="35.6664" y1="97.7879" x2="39.3558" y2="20.8772" gradientUnits="userSpaceOnUse">
<stop stop-color="#70EACB"/>
<stop offset="1" stop-color="#118F99" stop-opacity="0"/>
</linearGradient>
<linearGradient id="paint6_linear_46_91" x1="33.2511" y1="98.3952" x2="37.7143" y2="51.0355" gradientUnits="userSpaceOnUse">
<stop stop-color="#97F5DD"/>
<stop offset="1" stop-color="#53DBBC" stop-opacity="0"/>
</linearGradient>
</defs>
</svg>
