<svg version="1.1" id="Layer_1" xmlns="http://www.w3.org/2000/svg" xmlns:xlink="http://www.w3.org/1999/xlink" x="0px" y="0px"
	 width="100%" viewBox="0 0 1902 2100" enable-background="new 0 0 1902 2100" xml:space="preserve">
<path fill="#000000" opacity="1.000000" stroke="none" 
	d="
M1088.000000,2101.000000 
	C1076.645752,2101.000000 1065.291504,2101.000000 1053.323486,2100.607422 
	C1048.709717,2099.579834 1044.678101,2099.098389 1040.715088,2098.282715 
	C1024.815796,2095.011963 1010.199280,2088.597656 996.441772,2080.072998 
	C984.694397,2072.793945 974.178223,2064.132812 965.653442,2053.181396 
	C960.957397,2047.148804 956.286316,2041.096680 951.746826,2035.237793 
	C943.696045,2047.256226 934.970215,2058.631592 923.641174,2068.044434 
	C906.752563,2082.076416 888.127930,2092.329834 866.611511,2097.096680 
	C860.740967,2098.397461 854.870544,2099.698975 849.000000,2101.000000 
	C838.645752,2101.000000 828.291565,2101.000000 817.320068,2100.604980 
	C803.716187,2097.143555 790.553162,2094.672607 777.778687,2090.889893 
	C748.842773,2082.321289 720.885132,2070.960938 693.800842,2057.777832 
	C672.564209,2047.441040 651.901917,2035.833740 631.471069,2023.953857 
	C603.394104,2007.628296 576.361328,1989.689087 551.296936,1968.890991 
	C536.011108,1956.207031 524.617981,1940.588501 514.823120,1923.511963 
	C502.894012,1902.714355 498.329956,1879.724731 493.989624,1856.611938 
	C491.277344,1842.168579 488.513123,1827.734375 485.677063,1813.314941 
	C483.529358,1803.394897 481.165039,1791.517578 479.016602,1780.597778 
	C476.179626,1766.178467 473.520935,1751.724121 470.672699,1737.307129 
	C467.514709,1721.322144 464.155731,1705.376831 461.049866,1689.382080 
	C460.246582,1685.245483 459.841583,1681.168823 455.414124,1679.032471 
	C451.949432,1677.360596 448.570618,1675.503540 445.201477,1673.642212 
	C433.246094,1667.037354 421.264191,1660.478149 409.379913,1653.747192 
	C392.876862,1644.400269 376.497711,1634.834351 359.980469,1625.512939 
	C347.527496,1618.485229 334.876953,1611.807495 322.428772,1604.771362 
	C302.692902,1593.616211 283.114685,1582.181519 263.352661,1571.073364 
	C247.046127,1561.907349 230.544998,1553.216187 216.183334,1540.876343 
	C197.998993,1525.251831 182.806152,1507.339722 172.083344,1485.933716 
	C161.365860,1464.538452 151.061707,1442.924072 141.098343,1421.166504 
	C131.490158,1400.184692 121.909142,1379.149170 113.463058,1357.685791 
	C100.563850,1324.906006 88.610023,1291.753174 76.337120,1258.728149 
	C70.566505,1243.199951 66.507507,1227.250610 66.034660,1210.600586 
	C65.521507,1192.531738 68.430695,1174.961792 75.052780,1158.130615 
	C84.828430,1133.284180 100.495415,1112.967163 122.617607,1097.840820 
	C128.901993,1093.543701 135.426743,1089.598145 141.957504,1085.416992 
	C121.828156,1071.848022 102.153076,1058.050781 81.938126,1045.096069 
	C57.441044,1029.397095 37.286686,1009.581909 23.142242,984.199829 
	C9.649213,959.986694 2.513663,933.792542 1.962358,905.933594 
	C1.909919,903.283752 1.333276,900.644287 0.999998,898.000000 
	C1.000000,871.645752 1.000000,845.291565 1.408237,818.302063 
	C2.877451,803.919800 3.844457,790.164612 5.031220,776.428467 
	C5.874550,766.667358 6.668647,756.880554 8.105145,747.197266 
	C10.099228,733.755493 12.480263,720.362549 15.050517,707.017029 
	C18.264553,690.328857 23.958889,674.526917 33.311871,660.213745 
	C41.024807,648.410339 49.602352,637.318420 60.883621,628.635864 
	C69.817101,621.760254 78.733963,614.862244 89.469513,610.819946 
	C96.582520,608.141602 103.575699,605.144958 110.675133,602.269531 
	C108.917114,598.835815 107.102417,595.232727 105.236252,591.656555 
	C97.230118,576.314148 92.640656,559.854431 91.223312,542.765991 
	C90.353973,532.284607 91.284035,521.593140 92.089966,511.048309 
	C93.204582,496.464813 97.046089,482.397003 104.022682,469.578644 
	C112.545319,453.919617 121.177475,438.197205 131.279495,423.548492 
	C147.992508,399.313385 165.423782,375.529877 183.498611,352.292023 
	C196.849731,335.127167 211.057129,318.515686 226.043991,302.762085 
	C248.734253,278.910950 272.064392,255.632782 297.671417,234.801880 
	C310.827271,224.099823 323.395325,212.602615 337.096222,202.659744 
	C359.025879,186.745193 381.171326,171.012726 404.157440,156.699814 
	C430.060394,140.570679 456.708771,125.566765 483.582184,111.093239 
	C501.363403,101.516594 519.852478,93.117233 538.491211,85.303932 
	C562.409119,75.277611 586.564087,65.705284 611.047119,57.171543 
	C633.740356,49.261646 656.914856,42.678242 680.040527,36.082569 
	C694.874023,31.851906 709.950378,28.420645 725.014771,25.066616 
	C739.347168,21.875546 753.765808,19.027830 768.220215,16.440964 
	C781.782654,14.013729 795.419617,11.969780 809.065552,10.054240 
	C818.272400,8.761836 827.550049,7.971480 836.798706,6.980844 
	C849.301270,5.641661 861.786621,4.077670 874.316833,3.081385 
	C883.702393,2.335133 893.148071,2.355519 902.563843,1.959742 
	C903.387878,1.925104 904.188477,1.333111 905.000000,1.000000 
	C936.020874,1.000000 967.041809,1.000000 998.698486,1.408629 
	C1019.000793,3.211092 1038.674072,4.517560 1058.331177,6.034204 
	C1068.761719,6.838984 1079.221191,7.612658 1089.566040,9.105014 
	C1105.593750,11.417195 1121.573975,14.117371 1137.502075,17.046658 
	C1156.548340,20.549456 1175.689331,23.766560 1194.486450,28.349268 
	C1234.242432,38.041729 1273.449463,49.566566 1311.905884,63.785995 
	C1344.888306,75.981339 1377.154785,89.701134 1408.723633,105.075569 
	C1424.470459,112.744484 1439.900879,121.113914 1455.151123,129.738159 
	C1471.798828,139.152695 1488.343384,148.804779 1504.452759,159.104492 
	C1537.784668,180.415771 1569.867432,203.494247 1599.844727,229.381226 
	C1613.626587,241.282715 1627.714355,252.889297 1640.804321,265.519989 
	C1663.778931,287.688721 1686.437500,310.216553 1706.584595,335.087311 
	C1715.093140,345.590820 1723.878906,355.880524 1732.097656,366.605286 
	C1741.546143,378.934448 1750.952515,391.339752 1759.572998,404.249054 
	C1772.354736,423.389740 1784.890137,442.728424 1796.659668,462.501129 
	C1806.150757,478.446106 1811.253540,496.324982 1812.740967,514.689636 
	C1814.250122,533.320374 1813.708618,552.183594 1807.296265,570.127747 
	C1803.323975,581.243530 1798.374146,592.010010 1794.033447,602.520874 
	C1802.421265,605.883484 1811.757568,608.652161 1820.135986,613.189514 
	C1837.159790,622.408630 1851.977417,634.454285 1863.762939,650.138428 
	C1874.747314,664.756531 1883.257446,680.630859 1886.810669,698.471985 
	C1891.584595,722.441895 1895.481445,746.616028 1898.816406,770.831787 
	C1900.806396,785.281860 1900.982178,799.980713 1902.032959,814.563416 
	C1902.116821,815.726135 1902.666626,816.855286 1903.000000,818.000000 
	C1903.000000,844.354248 1903.000000,870.708435 1902.591553,897.698120 
	C1901.448853,909.158752 1901.665771,920.152954 1899.777954,930.773132 
	C1896.103271,951.445679 1888.977417,971.061279 1877.977417,989.095825 
	C1869.039429,1003.749817 1858.446045,1017.309998 1845.122803,1027.973755 
	C1830.667725,1039.543579 1814.905396,1049.490234 1799.620361,1060.010010 
	C1787.164917,1068.582397 1774.572998,1076.956421 1761.817383,1085.569824 
	C1764.820679,1087.397095 1767.512451,1089.163574 1770.319824,1090.721436 
	C1786.994507,1099.974365 1800.886475,1112.369629 1812.186523,1127.693237 
	C1829.017822,1150.517700 1837.260986,1176.260376 1837.936279,1204.480103 
	C1838.053711,1209.386353 1837.623047,1214.353516 1836.933105,1219.219971 
	C1835.869141,1226.723755 1835.133179,1234.405396 1832.892700,1241.585449 
	C1827.213989,1259.782227 1821.202148,1277.901245 1814.535034,1295.756592 
	C1806.189819,1318.105713 1797.300781,1340.261230 1788.193359,1362.312988 
	C1779.081787,1384.374512 1769.524902,1406.255005 1759.932007,1428.113403 
	C1756.060059,1436.935791 1751.455322,1445.433350 1747.390747,1454.174805 
	C1736.850708,1476.843384 1726.483154,1499.519287 1709.898926,1518.765259 
	C1694.584717,1536.537476 1676.992432,1551.208496 1656.322021,1562.323364 
	C1642.451294,1569.782104 1628.808838,1577.667236 1615.101440,1585.427124 
	C1597.758057,1595.245728 1580.485229,1605.189453 1563.119385,1614.968262 
	C1550.798828,1621.905884 1538.334961,1628.589233 1526.006714,1635.513916 
	C1509.198486,1644.955078 1492.446167,1654.496338 1475.693237,1664.035889 
	C1465.908813,1669.607544 1456.137329,1675.204102 1446.454956,1680.949829 
	C1445.325439,1681.620117 1444.345337,1683.220581 1444.072998,1684.549316 
	C1441.900757,1695.143799 1439.957886,1705.784912 1437.864746,1716.395874 
	C1434.273315,1734.602417 1430.637207,1752.800171 1426.994751,1770.996704 
	C1423.764160,1787.134888 1420.480469,1803.262573 1417.256348,1819.402100 
	C1415.137939,1830.007568 1413.192505,1840.648560 1410.976562,1851.233276 
	C1407.222412,1869.164917 1404.886353,1887.422607 1398.036865,1904.633911 
	C1390.177612,1924.382202 1379.063721,1942.051025 1364.753296,1957.685425 
	C1352.877441,1970.660034 1338.338989,1980.365967 1324.115845,1990.522461 
	C1295.632812,2010.861816 1266.121460,2029.576782 1234.905884,2045.303711 
	C1211.002808,2057.346680 1186.509521,2068.370605 1161.691528,2078.393799 
	C1143.317627,2085.814453 1124.033081,2091.003174 1105.082153,2096.957275 
	C1099.514404,2098.706543 1093.700806,2099.674072 1088.000000,2101.000000 
M303.287537,391.780670 
	C292.351898,404.559296 281.127991,417.104248 270.540771,430.165314 
	C248.589157,457.246033 228.944061,485.961823 211.344620,516.055054 
	C208.163544,521.494385 205.861893,527.094543 207.714752,533.927368 
	C210.373398,543.731567 216.664719,549.251160 225.784714,552.923645 
	C326.691193,593.556763 427.540985,634.330811 528.399597,675.082886 
	C623.699158,713.588806 719.044373,751.982788 814.257080,790.702332 
	C847.284851,804.133484 881.404541,813.295105 916.775940,816.747803 
	C944.237671,819.428467 971.862366,819.048157 999.347290,815.145081 
	C1023.812073,811.670898 1047.926758,806.606201 1070.954834,797.707703 
	C1108.030640,783.380798 1144.802490,768.264709 1181.662598,753.382751 
	C1347.308594,686.504761 1512.885620,619.455750 1678.662598,552.904297 
	C1695.065918,546.319153 1700.724976,529.119202 1691.616699,513.937012 
	C1656.176025,454.862335 1613.613892,401.562225 1563.807373,354.032349 
	C1494.086304,287.498413 1414.789185,235.244614 1326.885254,195.986267 
	C1225.721436,150.806000 1119.645996,125.686592 1009.142090,119.058426 
	C991.758850,118.015755 974.331726,117.596992 956.917664,117.223503 
	C949.135498,117.056580 941.333496,117.666504 933.544189,118.008942 
	C912.682800,118.926048 891.794312,119.471283 870.969482,120.923477 
	C831.234375,123.694366 791.964661,129.954987 753.065063,138.409607 
	C669.308899,156.613525 589.624939,185.870453 514.405212,227.075455 
	C435.311890,270.402405 364.767853,324.717224 303.287537,391.780670 
M1467.610229,1307.060303 
	C1446.496704,1317.666382 1425.427856,1328.364258 1404.200073,1338.736450 
	C1402.075806,1339.774414 1398.365356,1339.758423 1396.535889,1338.528564 
	C1395.013428,1337.505127 1394.300903,1333.813477 1394.721558,1331.585327 
	C1400.019043,1303.524902 1405.895752,1275.571777 1411.019043,1247.480835 
	C1420.111206,1197.627930 1444.838745,1158.028442 1487.008301,1129.593994 
	C1513.932983,1111.439087 1540.879028,1093.316162 1567.821289,1075.187378 
	C1632.894165,1031.401489 1697.965210,987.612915 1763.049683,943.844299 
	C1775.200806,935.672852 1782.576294,924.353699 1784.628296,909.938721 
	C1785.699219,902.415588 1785.970825,894.720947 1785.927246,887.107605 
	C1785.793335,863.654297 1785.563110,840.196411 1784.903442,816.753479 
	C1784.576294,805.128723 1783.759399,793.461243 1782.213623,781.940674 
	C1779.941284,765.007324 1776.633179,748.215698 1774.112183,731.312195 
	C1771.856445,716.187256 1760.877808,710.752075 1747.506714,718.466736 
	C1594.674316,806.645874 1441.731079,894.633972 1289.057617,983.087402 
	C1227.523682,1018.737915 1185.400513,1070.857910 1161.990112,1138.006836 
	C1154.577148,1159.269897 1150.423218,1181.253418 1147.806152,1203.608521 
	C1145.626953,1222.225464 1142.547485,1240.735352 1140.074585,1259.320312 
	C1137.994873,1274.949707 1136.316528,1290.632080 1134.274780,1306.266724 
	C1131.980835,1323.832642 1129.376465,1341.357910 1127.093140,1358.925049 
	C1124.121704,1381.787109 1121.424805,1404.685059 1118.436523,1427.544800 
	C1116.114502,1445.306274 1113.410034,1463.017944 1111.086548,1480.779175 
	C1108.074341,1503.805176 1105.356567,1526.869873 1102.351440,1549.896851 
	C1100.033081,1567.662354 1097.374512,1585.383179 1095.039185,1603.146729 
	C1093.048706,1618.286011 1091.414429,1633.472290 1089.420410,1648.611206 
	C1087.081421,1666.368896 1084.428467,1684.085327 1082.090088,1701.843140 
	C1080.079224,1717.114746 1078.412476,1732.431641 1076.419189,1747.705688 
	C1074.747070,1760.518188 1072.716064,1773.283691 1071.038940,1786.095581 
	C1069.039917,1801.367920 1067.350586,1816.680786 1065.340576,1831.951538 
	C1063.002930,1849.712646 1060.430542,1867.442749 1058.018555,1885.194214 
	C1054.671631,1909.826538 1051.335449,1934.460449 1048.134155,1959.111938 
	C1047.826050,1961.484375 1048.080566,1964.116821 1048.792847,1966.404663 
	C1053.663086,1982.047363 1064.082153,1987.572388 1079.723755,1982.976440 
	C1150.559082,1962.162842 1214.113281,1927.204102 1273.038574,1883.305664 
	C1282.752197,1876.069092 1288.876099,1866.364014 1291.246704,1854.400513 
	C1299.157349,1814.478027 1307.085693,1774.558960 1314.968140,1734.630859 
	C1322.377197,1697.101685 1329.674316,1659.550415 1337.158325,1622.036255 
	C1339.251953,1611.541260 1344.977173,1603.478027 1354.465454,1598.173950 
	C1372.770508,1587.941528 1391.023682,1577.616577 1409.297363,1567.327881 
	C1473.259644,1531.315308 1537.211670,1495.283936 1601.192261,1459.303589 
	C1613.771484,1452.229492 1623.206421,1442.316528 1629.636719,1429.380615 
	C1652.977783,1382.424683 1674.528931,1334.670532 1693.250122,1285.682861 
	C1702.509399,1261.453979 1711.249634,1237.021606 1719.870972,1212.556641 
	C1724.099609,1200.557129 1717.018066,1190.867554 1704.508301,1191.114624 
	C1701.010010,1191.183716 1697.277222,1192.081177 1694.104614,1193.565796 
	C1684.310303,1198.149414 1674.742432,1203.215942 1665.072632,1208.067017 
	C1599.482788,1240.972046 1533.889404,1273.869629 1467.610229,1307.060303 
M538.495178,1591.994019 
	C542.267761,1594.114380 546.036499,1596.241699 549.813843,1598.353516 
	C559.126465,1603.560303 564.740479,1611.553955 566.783875,1621.879395 
	C581.603882,1696.767334 596.557556,1771.630249 610.909668,1846.608276 
	C614.267212,1864.148804 621.746582,1878.041016 636.905090,1887.827393 
	C648.089539,1895.048096 658.692261,1903.168091 669.856018,1910.422974 
	C719.390869,1942.612549 771.935791,1968.322388 829.035889,1984.304443 
	C838.636353,1986.991577 855.828857,1977.768555 854.971436,1964.310303 
	C854.562927,1957.897827 853.802368,1951.503052 853.048706,1945.118286 
	C851.259216,1929.958008 849.472778,1914.796509 847.510864,1899.658081 
	C845.146240,1881.411499 842.545654,1863.195801 840.150818,1844.953125 
	C837.862427,1827.521729 835.774414,1810.063843 833.475769,1792.633911 
	C830.766113,1772.087036 827.848999,1751.567505 825.160095,1731.018066 
	C821.871338,1705.884521 818.808228,1680.721313 815.490906,1655.591553 
	C813.149780,1637.856323 810.445312,1620.169067 808.093750,1602.435059 
	C806.021606,1586.808716 804.289612,1571.137451 802.269287,1555.503784 
	C799.972900,1537.734009 797.476013,1519.990356 795.151794,1502.223999 
	C792.161560,1479.367188 789.297668,1456.493774 786.300232,1433.637939 
	C784.319153,1418.532104 782.128662,1403.453857 780.156677,1388.346924 
	C776.811340,1362.718750 773.627319,1337.069336 770.254333,1311.444946 
	C767.963135,1294.038330 765.379333,1276.670532 763.079773,1259.265015 
	C759.710083,1233.760986 757.449097,1208.068359 753.009949,1182.755371 
	C737.946411,1096.859863 693.279480,1030.109741 618.495605,985.445068 
	C535.806335,936.058899 451.793518,888.888794 368.360138,840.748352 
	C330.625854,818.975891 292.901672,797.185974 255.167801,775.412842 
	C221.865646,756.196960 188.578094,736.955566 155.238068,717.805603 
	C144.167694,711.446960 132.508865,716.315857 130.041763,728.253418 
	C122.870056,762.955322 118.836128,798.108093 117.262138,833.430481 
	C116.302940,854.956055 118.170441,876.594788 118.305313,898.185547 
	C118.444855,920.522400 128.603729,935.921997 147.199463,948.292236 
	C237.178558,1008.148010 326.626495,1068.801758 416.321259,1129.085693 
	C452.465515,1153.378296 476.988037,1186.161255 488.448151,1228.212646 
	C492.413788,1242.764160 494.708008,1257.774048 497.695160,1272.588745 
	C501.722870,1292.564087 505.732330,1312.543213 509.638947,1332.542480 
	C510.719055,1338.071899 506.316040,1341.547729 501.068146,1339.511597 
	C499.986755,1339.092041 498.975189,1338.491943 497.933380,1337.971191 
	C448.319336,1313.174561 398.676178,1288.435913 349.100067,1263.563721 
	C302.742218,1240.306030 256.492828,1216.831787 210.072754,1193.699463 
	C205.981796,1191.661011 200.788040,1190.069092 196.437851,1190.669678 
	C186.051666,1192.103760 180.534470,1201.976440 183.979218,1212.052124 
	C190.820755,1232.063110 197.682266,1252.080200 205.162170,1271.857666 
	C225.755493,1326.307983 249.153885,1379.551147 275.318298,1431.556519 
	C280.505463,1441.866943 287.933167,1450.599365 298.090607,1456.432007 
	C319.203888,1468.555908 340.449738,1480.449463 361.661224,1492.402100 
	C420.385132,1525.492676 479.119385,1558.565063 538.495178,1591.994019 
z"/>
<path fill="#00E247" opacity="1.000000" stroke="none" 
	d="
M303.517975,391.512726 
	C364.767853,324.717224 435.311890,270.402405 514.405212,227.075455 
	C589.624939,185.870453 669.308899,156.613525 753.065063,138.409607 
	C791.964661,129.954987 831.234375,123.694366 870.969482,120.923477 
	C891.794312,119.471283 912.682800,118.926048 933.544189,118.008942 
	C941.333496,117.666504 949.135498,117.056580 956.917664,117.223503 
	C974.331726,117.596992 991.758850,118.015755 1009.142090,119.058426 
	C1119.645996,125.686592 1225.721436,150.806000 1326.885254,195.986267 
	C1414.789185,235.244614 1494.086304,287.498413 1563.807373,354.032349 
	C1613.613892,401.562225 1656.176025,454.862335 1691.616699,513.937012 
	C1700.724976,529.119202 1695.065918,546.319153 1678.662598,552.904297 
	C1512.885620,619.455750 1347.308594,686.504761 1181.662598,753.382751 
	C1144.802490,768.264709 1108.030640,783.380798 1070.954834,797.707703 
	C1047.926758,806.606201 1023.812073,811.670898 999.347290,815.145081 
	C971.862366,819.048157 944.237671,819.428467 916.775940,816.747803 
	C881.404541,813.295105 847.284851,804.133484 814.257080,790.702332 
	C719.044373,751.982788 623.699158,713.588806 528.399597,675.082886 
	C427.540985,634.330811 326.691193,593.556763 225.784714,552.923645 
	C216.664719,549.251160 210.373398,543.731567 207.714752,533.927368 
	C205.861893,527.094543 208.163544,521.494385 211.344620,516.055054 
	C228.944061,485.961823 248.589157,457.246033 270.540771,430.165314 
	C281.127991,417.104248 292.351898,404.559296 303.517975,391.512726 
M632.853394,378.487671 
	C632.787048,388.746033 637.941284,396.069733 645.841125,401.966705 
	C733.405884,467.331299 820.946106,532.728760 908.507019,598.098572 
	C935.679382,618.384460 968.340210,618.365173 995.551880,598.051636 
	C1051.081055,556.599243 1106.585571,515.113770 1162.106079,473.650024 
	C1194.135376,449.730042 1226.178833,425.829224 1258.210693,401.912750 
	C1269.035278,393.830658 1273.321777,383.120361 1270.425903,371.477173 
	C1266.881348,357.226044 1255.973877,349.154694 1240.155151,349.154175 
	C1047.995605,349.148041 855.835938,349.150177 663.676331,349.150421 
	C662.843018,349.150421 662.008179,349.121857 661.176636,349.160645 
	C644.867126,349.921478 633.635010,361.193512 632.853394,378.487671 
z"/>
<path fill="#00E247" opacity="1.000000" stroke="none" 
	d="
M1467.953613,1306.915039 
	C1533.889404,1273.869629 1599.482788,1240.972046 1665.072632,1208.067017 
	C1674.742432,1203.215942 1684.310303,1198.149414 1694.104614,1193.565796 
	C1697.277222,1192.081177 1701.010010,1191.183716 1704.508301,1191.114624 
	C1717.018066,1190.867554 1724.099609,1200.557129 1719.870972,1212.556641 
	C1711.249634,1237.021606 1702.509399,1261.453979 1693.250122,1285.682861 
	C1674.528931,1334.670532 1652.977783,1382.424683 1629.636719,1429.380615 
	C1623.206421,1442.316528 1613.771484,1452.229492 1601.192261,1459.303589 
	C1537.211670,1495.283936 1473.259644,1531.315308 1409.297363,1567.327881 
	C1391.023682,1577.616577 1372.770508,1587.941528 1354.465454,1598.173950 
	C1344.977173,1603.478027 1339.251953,1611.541260 1337.158325,1622.036255 
	C1329.674316,1659.550415 1322.377197,1697.101685 1314.968140,1734.630859 
	C1307.085693,1774.558960 1299.157349,1814.478027 1291.246704,1854.400513 
	C1288.876099,1866.364014 1282.752197,1876.069092 1273.038574,1883.305664 
	C1214.113281,1927.204102 1150.559082,1962.162842 1079.723755,1982.976440 
	C1064.082153,1987.572388 1053.663086,1982.047363 1048.792847,1966.404663 
	C1048.080566,1964.116821 1047.826050,1961.484375 1048.134155,1959.111938 
	C1051.335449,1934.460449 1054.671631,1909.826538 1058.018555,1885.194214 
	C1060.430542,1867.442749 1063.002930,1849.712646 1065.340576,1831.951538 
	C1067.350586,1816.680786 1069.039917,1801.367920 1071.038940,1786.095581 
	C1072.716064,1773.283691 1074.747070,1760.518188 1076.419189,1747.705688 
	C1078.412476,1732.431641 1080.079224,1717.114746 1082.090088,1701.843140 
	C1084.428467,1684.085327 1087.081421,1666.368896 1089.420410,1648.611206 
	C1091.414429,1633.472290 1093.048706,1618.286011 1095.039185,1603.146729 
	C1097.374512,1585.383179 1100.033081,1567.662354 1102.351440,1549.896851 
	C1105.356567,1526.869873 1108.074341,1503.805176 1111.086548,1480.779175 
	C1113.410034,1463.017944 1116.114502,1445.306274 1118.436523,1427.544800 
	C1121.424805,1404.685059 1124.121704,1381.787109 1127.093140,1358.925049 
	C1129.376465,1341.357910 1131.980835,1323.832642 1134.274780,1306.266724 
	C1136.316528,1290.632080 1137.994873,1274.949707 1140.074585,1259.320312 
	C1142.547485,1240.735352 1145.626953,1222.225464 1147.806152,1203.608521 
	C1150.423218,1181.253418 1154.577148,1159.269897 1161.990112,1138.006836 
	C1185.400513,1070.857910 1227.523682,1018.737915 1289.057617,983.087402 
	C1441.731079,894.633972 1594.674316,806.645874 1747.506714,718.466736 
	C1760.877808,710.752075 1771.856445,716.187256 1774.112183,731.312195 
	C1776.633179,748.215698 1779.941284,765.007324 1782.213623,781.940674 
	C1783.759399,793.461243 1784.576294,805.128723 1784.903442,816.753479 
	C1785.563110,840.196411 1785.793335,863.654297 1785.927246,887.107605 
	C1785.970825,894.720947 1785.699219,902.415588 1784.628296,909.938721 
	C1782.576294,924.353699 1775.200806,935.672852 1763.049683,943.844299 
	C1697.965210,987.612915 1632.894165,1031.401489 1567.821289,1075.187378 
	C1540.879028,1093.316162 1513.932983,1111.439087 1487.008301,1129.593994 
	C1444.838745,1158.028442 1420.111206,1197.627930 1411.019043,1247.480835 
	C1405.895752,1275.571777 1400.019043,1303.524902 1394.721558,1331.585327 
	C1394.300903,1333.813477 1395.013428,1337.505127 1396.535889,1338.528564 
	C1398.365356,1339.758423 1402.075806,1339.774414 1404.200073,1338.736450 
	C1425.427856,1328.364258 1446.496704,1317.666382 1467.953613,1306.915039 
z"/>
<path fill="#00E247" opacity="1.000000" stroke="none" 
	d="
M538.172363,1591.819336 
	C479.119385,1558.565063 420.385132,1525.492676 361.661224,1492.402100 
	C340.449738,1480.449463 319.203888,1468.555908 298.090607,1456.432007 
	C287.933167,1450.599365 280.505463,1441.866943 275.318298,1431.556519 
	C249.153885,1379.551147 225.755493,1326.307983 205.162170,1271.857666 
	C197.682266,1252.080200 190.820755,1232.063110 183.979218,1212.052124 
	C180.534470,1201.976440 186.051666,1192.103760 196.437851,1190.669678 
	C200.788040,1190.069092 205.981796,1191.661011 210.072754,1193.699463 
	C256.492828,1216.831787 302.742218,1240.306030 349.100067,1263.563721 
	C398.676178,1288.435913 448.319336,1313.174561 497.933380,1337.971191 
	C498.975189,1338.491943 499.986755,1339.092041 501.068146,1339.511597 
	C506.316040,1341.547729 510.719055,1338.071899 509.638947,1332.542480 
	C505.732330,1312.543213 501.722870,1292.564087 497.695160,1272.588745 
	C494.708008,1257.774048 492.413788,1242.764160 488.448151,1228.212646 
	C476.988037,1186.161255 452.465515,1153.378296 416.321259,1129.085693 
	C326.626495,1068.801758 237.178558,1008.148010 147.199463,948.292236 
	C128.603729,935.921997 118.444855,920.522400 118.305313,898.185547 
	C118.170441,876.594788 116.302940,854.956055 117.262138,833.430481 
	C118.836128,798.108093 122.870056,762.955322 130.041763,728.253418 
	C132.508865,716.315857 144.167694,711.446960 155.238068,717.805603 
	C188.578094,736.955566 221.865646,756.196960 255.167801,775.412842 
	C292.901672,797.185974 330.625854,818.975891 368.360138,840.748352 
	C451.793518,888.888794 535.806335,936.058899 618.495605,985.445068 
	C693.279480,1030.109741 737.946411,1096.859863 753.009949,1182.755371 
	C757.449097,1208.068359 759.710083,1233.760986 763.079773,1259.265015 
	C765.379333,1276.670532 767.963135,1294.038330 770.254333,1311.444946 
	C773.627319,1337.069336 776.811340,1362.718750 780.156677,1388.346924 
	C782.128662,1403.453857 784.319153,1418.532104 786.300232,1433.637939 
	C789.297668,1456.493774 792.161560,1479.367188 795.151794,1502.223999 
	C797.476013,1519.990356 799.972900,1537.734009 802.269287,1555.503784 
	C804.289612,1571.137451 806.021606,1586.808716 808.093750,1602.435059 
	C810.445312,1620.169067 813.149780,1637.856323 815.490906,1655.591553 
	C818.808228,1680.721313 821.871338,1705.884521 825.160095,1731.018066 
	C827.848999,1751.567505 830.766113,1772.087036 833.475769,1792.633911 
	C835.774414,1810.063843 837.862427,1827.521729 840.150818,1844.953125 
	C842.545654,1863.195801 845.146240,1881.411499 847.510864,1899.658081 
	C849.472778,1914.796509 851.259216,1929.958008 853.048706,1945.118286 
	C853.802368,1951.503052 854.562927,1957.897827 854.971436,1964.310303 
	C855.828857,1977.768555 838.636353,1986.991577 829.035889,1984.304443 
	C771.935791,1968.322388 719.390869,1942.612549 669.856018,1910.422974 
	C658.692261,1903.168091 648.089539,1895.048096 636.905090,1887.827393 
	C621.746582,1878.041016 614.267212,1864.148804 610.909668,1846.608276 
	C596.557556,1771.630249 581.603882,1696.767334 566.783875,1621.879395 
	C564.740479,1611.553955 559.126465,1603.560303 549.813843,1598.353516 
	C546.036499,1596.241699 542.267761,1594.114380 538.172363,1591.819336 
z"/>
<path fill="#000000" opacity="1.000000" stroke="none" 
	d="
M632.853638,378.031189 
	C633.635010,361.193512 644.867126,349.921478 661.176636,349.160645 
	C662.008179,349.121857 662.843018,349.150421 663.676331,349.150421 
	C855.835938,349.150177 1047.995605,349.148041 1240.155151,349.154175 
	C1255.973877,349.154694 1266.881348,357.226044 1270.425903,371.477173 
	C1273.321777,383.120361 1269.035278,393.830658 1258.210693,401.912750 
	C1226.178833,425.829224 1194.135376,449.730042 1162.106079,473.650024 
	C1106.585571,515.113770 1051.081055,556.599243 995.551880,598.051636 
	C968.340210,618.365173 935.679382,618.384460 908.507019,598.098572 
	C820.946106,532.728760 733.405884,467.331299 645.841125,401.966705 
	C637.941284,396.069733 632.787048,388.746033 632.853638,378.031189 
z"/>
</svg>