<svg width="28" height="25" viewBox="0 0 28 25" fill="none" xmlns="http://www.w3.org/2000/svg">
<path d="M27.4965 13.8195L18.2019 24.3177C17.372 25.2551 15.9336 24.5989 15.9336 23.2554V17.2564H8.40938C7.67356 17.2564 7.08158 16.5878 7.08158 15.7567V9.75765C7.08158 8.92654 7.67356 8.2579 8.40938 8.2579H15.9336V2.25889C15.9336 0.921615 17.3665 0.259225 18.2019 1.19657L27.4965 11.6948C28.011 12.2822 28.011 13.2321 27.4965 13.8195ZM10.6224 24.0053V21.5057C10.6224 21.0933 10.3236 20.7558 9.95848 20.7558H5.31119C4.33194 20.7558 3.54079 19.8622 3.54079 18.7562V6.75815C3.54079 5.65208 4.33194 4.75848 5.31119 4.75848H9.95848C10.3236 4.75848 10.6224 4.42103 10.6224 4.0086V1.50902C10.6224 1.09659 10.3236 0.759142 9.95848 0.759142H5.31119C2.37897 0.759142 0 3.4462 0 6.75815V18.7562C0 22.0681 2.37897 24.7552 5.31119 24.7552H9.95848C10.3236 24.7552 10.6224 24.4177 10.6224 24.0053Z" fill="white"/>
</svg>
