<svg width="234" height="44" viewBox="0 0 234 44" fill="none" xmlns="http://www.w3.org/2000/svg">
<g filter="url(#filter0_f_322_8273)">
<path d="M117 8L156.616 16.9117L226 22L156.616 27.0883L117 36L77.3836 27.0883L8 22L77.3836 16.9117L117 8Z" fill="#03766C"/>
</g>
<g filter="url(#filter1_f_322_8273)">
<path d="M117 11L139.534 17.6837L179 21.5L139.534 25.3163L117 32L94.4659 25.3163L55 21.5L94.4659 17.6837L117 11Z" fill="#14B1A4"/>
</g>
<g filter="url(#filter2_d_322_8273)">
<path d="M64.4062 25.5352C64.4062 25.2305 64.3594 24.957 64.2656 24.7148C64.1797 24.4648 64.0156 24.2383 63.7734 24.0352C63.5312 23.8242 63.1914 23.6172 62.7539 23.4141C62.3164 23.2109 61.75 23 61.0547 22.7812C60.2812 22.5312 59.5469 22.25 58.8516 21.9375C58.1641 21.625 57.5547 21.2617 57.0234 20.8477C56.5 20.4258 56.0859 19.9375 55.7812 19.3828C55.4844 18.8281 55.3359 18.1836 55.3359 17.4492C55.3359 16.7383 55.4922 16.0938 55.8047 15.5156C56.1172 14.9297 56.5547 14.4297 57.1172 14.0156C57.6797 13.5938 58.3438 13.2695 59.1094 13.043C59.8828 12.8164 60.7305 12.7031 61.6523 12.7031C62.9102 12.7031 64.0078 12.9297 64.9453 13.3828C65.8828 13.8359 66.6094 14.457 67.125 15.2461C67.6484 16.0352 67.9102 16.9375 67.9102 17.9531H64.418C64.418 17.4531 64.3125 17.0156 64.1016 16.6406C63.8984 16.2578 63.5859 15.957 63.1641 15.7383C62.75 15.5195 62.2266 15.4102 61.5938 15.4102C60.9844 15.4102 60.4766 15.5039 60.0703 15.6914C59.6641 15.8711 59.3594 16.1172 59.1562 16.4297C58.9531 16.7344 58.8516 17.0781 58.8516 17.4609C58.8516 17.75 58.9219 18.0117 59.0625 18.2461C59.2109 18.4805 59.4297 18.6992 59.7188 18.9023C60.0078 19.1055 60.3633 19.2969 60.7852 19.4766C61.207 19.6562 61.6953 19.832 62.25 20.0039C63.1797 20.2852 63.9961 20.6016 64.6992 20.9531C65.4102 21.3047 66.0039 21.6992 66.4805 22.1367C66.957 22.5742 67.3164 23.0703 67.5586 23.625C67.8008 24.1797 67.9219 24.8086 67.9219 25.5117C67.9219 26.2539 67.7773 26.918 67.4883 27.5039C67.1992 28.0898 66.7812 28.5859 66.2344 28.9922C65.6875 29.3984 65.0352 29.707 64.2773 29.918C63.5195 30.1289 62.6719 30.2344 61.7344 30.2344C60.8906 30.2344 60.0586 30.125 59.2383 29.9062C58.418 29.6797 57.6719 29.3398 57 28.8867C56.3359 28.4336 55.8047 27.8555 55.4062 27.1523C55.0078 26.4492 54.8086 25.6172 54.8086 24.6562H58.3359C58.3359 25.1875 58.418 25.6367 58.582 26.0039C58.7461 26.3711 58.9766 26.668 59.2734 26.8945C59.5781 27.1211 59.9375 27.2852 60.3516 27.3867C60.7734 27.4883 61.2344 27.5391 61.7344 27.5391C62.3438 27.5391 62.8438 27.4531 63.2344 27.2812C63.6328 27.1094 63.9258 26.8711 64.1133 26.5664C64.3086 26.2617 64.4062 25.918 64.4062 25.5352ZM80.6944 12.9375H84.1983V24.2109C84.1983 25.5234 83.917 26.6289 83.3545 27.5273C82.7998 28.4258 82.0303 29.1016 81.0459 29.5547C80.0694 30.0078 78.9444 30.2344 77.6709 30.2344C76.3975 30.2344 75.2647 30.0078 74.2725 29.5547C73.2881 29.1016 72.5147 28.4258 71.9522 27.5273C71.3975 26.6289 71.1202 25.5234 71.1202 24.2109V12.9375H74.6358V24.2109C74.6358 24.9766 74.7569 25.6016 74.9991 26.0859C75.2413 26.5703 75.5889 26.9258 76.042 27.1523C76.503 27.3789 77.0459 27.4922 77.6709 27.4922C78.3116 27.4922 78.8545 27.3789 79.2998 27.1523C79.753 26.9258 80.0967 26.5703 80.3311 26.0859C80.5733 25.6016 80.6944 24.9766 80.6944 24.2109V12.9375ZM97.9434 24.3398H101.447C101.377 25.4883 101.061 26.5078 100.498 27.3984C99.9434 28.2891 99.1661 28.9844 98.1661 29.4844C97.1739 29.9844 95.9786 30.2344 94.5802 30.2344C93.4864 30.2344 92.5059 30.0469 91.6387 29.6719C90.7716 29.2891 90.0294 28.7422 89.4122 28.0312C88.8028 27.3203 88.338 26.4609 88.0177 25.4531C87.6973 24.4453 87.5372 23.3164 87.5372 22.0664V20.8828C87.5372 19.6328 87.7012 18.5039 88.0294 17.4961C88.3653 16.4805 88.8419 15.6172 89.4591 14.9062C90.0841 14.1953 90.8302 13.6484 91.6973 13.2656C92.5645 12.8828 93.5333 12.6914 94.6036 12.6914C96.0255 12.6914 97.2247 12.9492 98.2012 13.4648C99.1856 13.9805 99.9473 14.6914 100.486 15.5977C101.033 16.5039 101.361 17.5352 101.471 18.6914H97.9552C97.9161 18.0039 97.7794 17.4219 97.545 16.9453C97.3106 16.4609 96.9552 16.0977 96.4786 15.8555C96.0098 15.6055 95.3848 15.4805 94.6036 15.4805C94.0177 15.4805 93.5059 15.5898 93.0684 15.8086C92.6309 16.0273 92.2637 16.3594 91.9669 16.8047C91.67 17.25 91.4473 17.8125 91.2989 18.4922C91.1583 19.1641 91.088 19.9531 91.088 20.8594V22.0664C91.088 22.9492 91.1544 23.7266 91.2872 24.3984C91.42 25.0625 91.6231 25.625 91.8966 26.0859C92.1778 26.5391 92.5372 26.8828 92.9747 27.1172C93.42 27.3438 93.9552 27.457 94.5802 27.457C95.3145 27.457 95.92 27.3398 96.3966 27.1055C96.8731 26.8711 97.2364 26.5234 97.4864 26.0625C97.7442 25.6016 97.8966 25.0273 97.9434 24.3398ZM114.607 24.3398H118.11C118.04 25.4883 117.724 26.5078 117.161 27.3984C116.607 28.2891 115.829 28.9844 114.829 29.4844C113.837 29.9844 112.642 30.2344 111.243 30.2344C110.15 30.2344 109.169 30.0469 108.302 29.6719C107.435 29.2891 106.693 28.7422 106.075 28.0312C105.466 27.3203 105.001 26.4609 104.681 25.4531C104.36 24.4453 104.2 23.3164 104.2 22.0664V20.8828C104.2 19.6328 104.364 18.5039 104.693 17.4961C105.028 16.4805 105.505 15.6172 106.122 14.9062C106.747 14.1953 107.493 13.6484 108.36 13.2656C109.228 12.8828 110.196 12.6914 111.267 12.6914C112.689 12.6914 113.888 12.9492 114.864 13.4648C115.849 13.9805 116.61 14.6914 117.15 15.5977C117.696 16.5039 118.025 17.5352 118.134 18.6914H114.618C114.579 18.0039 114.443 17.4219 114.208 16.9453C113.974 16.4609 113.618 16.0977 113.142 15.8555C112.673 15.6055 112.048 15.4805 111.267 15.4805C110.681 15.4805 110.169 15.5898 109.732 15.8086C109.294 16.0273 108.927 16.3594 108.63 16.8047C108.333 17.25 108.11 17.8125 107.962 18.4922C107.821 19.1641 107.751 19.9531 107.751 20.8594V22.0664C107.751 22.9492 107.818 23.7266 107.95 24.3984C108.083 25.0625 108.286 25.625 108.56 26.0859C108.841 26.5391 109.2 26.8828 109.638 27.1172C110.083 27.3438 110.618 27.457 111.243 27.457C111.978 27.457 112.583 27.3398 113.06 27.1055C113.536 26.8711 113.9 26.5234 114.15 26.0625C114.407 25.6016 114.56 25.0273 114.607 24.3398ZM132.828 27.2578V30H123.746V27.2578H132.828ZM124.895 12.9375V30H121.379V12.9375H124.895ZM131.645 19.8867V22.5586H123.746V19.8867H131.645ZM132.817 12.9375V15.6914H123.746V12.9375H132.817ZM144.722 25.5352C144.722 25.2305 144.675 24.957 144.581 24.7148C144.495 24.4648 144.331 24.2383 144.089 24.0352C143.847 23.8242 143.507 23.6172 143.07 23.4141C142.632 23.2109 142.066 23 141.37 22.7812C140.597 22.5312 139.863 22.25 139.167 21.9375C138.48 21.625 137.87 21.2617 137.339 20.8477C136.816 20.4258 136.402 19.9375 136.097 19.3828C135.8 18.8281 135.652 18.1836 135.652 17.4492C135.652 16.7383 135.808 16.0938 136.12 15.5156C136.433 14.9297 136.87 14.4297 137.433 14.0156C137.995 13.5938 138.659 13.2695 139.425 13.043C140.198 12.8164 141.046 12.7031 141.968 12.7031C143.226 12.7031 144.323 12.9297 145.261 13.3828C146.198 13.8359 146.925 14.457 147.441 15.2461C147.964 16.0352 148.226 16.9375 148.226 17.9531H144.734C144.734 17.4531 144.628 17.0156 144.417 16.6406C144.214 16.2578 143.902 15.957 143.48 15.7383C143.066 15.5195 142.542 15.4102 141.909 15.4102C141.3 15.4102 140.792 15.5039 140.386 15.6914C139.98 15.8711 139.675 16.1172 139.472 16.4297C139.269 16.7344 139.167 17.0781 139.167 17.4609C139.167 17.75 139.238 18.0117 139.378 18.2461C139.527 18.4805 139.745 18.6992 140.034 18.9023C140.323 19.1055 140.679 19.2969 141.101 19.4766C141.523 19.6562 142.011 19.832 142.566 20.0039C143.495 20.2852 144.312 20.6016 145.015 20.9531C145.726 21.3047 146.32 21.6992 146.796 22.1367C147.273 22.5742 147.632 23.0703 147.874 23.625C148.116 24.1797 148.238 24.8086 148.238 25.5117C148.238 26.2539 148.093 26.918 147.804 27.5039C147.515 28.0898 147.097 28.5859 146.55 28.9922C146.003 29.3984 145.351 29.707 144.593 29.918C143.835 30.1289 142.988 30.2344 142.05 30.2344C141.206 30.2344 140.374 30.125 139.554 29.9062C138.734 29.6797 137.988 29.3398 137.316 28.8867C136.652 28.4336 136.12 27.8555 135.722 27.1523C135.323 26.4492 135.124 25.6172 135.124 24.6562H138.652C138.652 25.1875 138.734 25.6367 138.898 26.0039C139.062 26.3711 139.292 26.668 139.589 26.8945C139.894 27.1211 140.253 27.2852 140.667 27.3867C141.089 27.4883 141.55 27.5391 142.05 27.5391C142.659 27.5391 143.159 27.4531 143.55 27.2812C143.948 27.1094 144.241 26.8711 144.429 26.5664C144.624 26.2617 144.722 25.918 144.722 25.5352ZM160.471 25.5352C160.471 25.2305 160.424 24.957 160.33 24.7148C160.244 24.4648 160.08 24.2383 159.838 24.0352C159.596 23.8242 159.256 23.6172 158.819 23.4141C158.381 23.2109 157.815 23 157.119 22.7812C156.346 22.5312 155.612 22.25 154.916 21.9375C154.229 21.625 153.619 21.2617 153.088 20.8477C152.565 20.4258 152.151 19.9375 151.846 19.3828C151.549 18.8281 151.401 18.1836 151.401 17.4492C151.401 16.7383 151.557 16.0938 151.869 15.5156C152.182 14.9297 152.619 14.4297 153.182 14.0156C153.744 13.5938 154.408 13.2695 155.174 13.043C155.948 12.8164 156.795 12.7031 157.717 12.7031C158.975 12.7031 160.073 12.9297 161.01 13.3828C161.948 13.8359 162.674 14.457 163.19 15.2461C163.713 16.0352 163.975 16.9375 163.975 17.9531H160.483C160.483 17.4531 160.377 17.0156 160.166 16.6406C159.963 16.2578 159.651 15.957 159.229 15.7383C158.815 15.5195 158.291 15.4102 157.658 15.4102C157.049 15.4102 156.541 15.5039 156.135 15.6914C155.729 15.8711 155.424 16.1172 155.221 16.4297C155.018 16.7344 154.916 17.0781 154.916 17.4609C154.916 17.75 154.987 18.0117 155.127 18.2461C155.276 18.4805 155.494 18.6992 155.783 18.9023C156.073 19.1055 156.428 19.2969 156.85 19.4766C157.272 19.6562 157.76 19.832 158.315 20.0039C159.244 20.2852 160.061 20.6016 160.764 20.9531C161.475 21.3047 162.069 21.6992 162.545 22.1367C163.022 22.5742 163.381 23.0703 163.623 23.625C163.865 24.1797 163.987 24.8086 163.987 25.5117C163.987 26.2539 163.842 26.918 163.553 27.5039C163.264 28.0898 162.846 28.5859 162.299 28.9922C161.752 29.3984 161.1 29.707 160.342 29.918C159.584 30.1289 158.737 30.2344 157.799 30.2344C156.955 30.2344 156.123 30.125 155.303 29.9062C154.483 29.6797 153.737 29.3398 153.065 28.8867C152.401 28.4336 151.869 27.8555 151.471 27.1523C151.073 26.4492 150.873 25.6172 150.873 24.6562H154.401C154.401 25.1875 154.483 25.6367 154.647 26.0039C154.811 26.3711 155.041 26.668 155.338 26.8945C155.643 27.1211 156.002 27.2852 156.416 27.3867C156.838 27.4883 157.299 27.5391 157.799 27.5391C158.408 27.5391 158.908 27.4531 159.299 27.2812C159.698 27.1094 159.99 26.8711 160.178 26.5664C160.373 26.2617 160.471 25.918 160.471 25.5352ZM170.935 12.9375L170.548 24.7852H167.736L167.337 12.9375H170.935ZM167.243 28.4531C167.243 27.9531 167.415 27.5391 167.759 27.2109C168.111 26.875 168.572 26.707 169.142 26.707C169.72 26.707 170.181 26.875 170.525 27.2109C170.868 27.5391 171.04 27.9531 171.04 28.4531C171.04 28.9375 170.868 29.3477 170.525 29.6836C170.181 30.0195 169.72 30.1875 169.142 30.1875C168.572 30.1875 168.111 30.0195 167.759 29.6836C167.415 29.3477 167.243 28.9375 167.243 28.4531Z" fill="#73FFD6"/>
</g>
<defs>
<filter id="filter0_f_322_8273" x="0.0999999" y="0.0999999" width="233.8" height="43.8" filterUnits="userSpaceOnUse" color-interpolation-filters="sRGB">
<feFlood flood-opacity="0" result="BackgroundImageFix"/>
<feBlend mode="normal" in="SourceGraphic" in2="BackgroundImageFix" result="shape"/>
<feGaussianBlur stdDeviation="3.95" result="effect1_foregroundBlur_322_8273"/>
</filter>
<filter id="filter1_f_322_8273" x="51" y="7" width="132" height="29" filterUnits="userSpaceOnUse" color-interpolation-filters="sRGB">
<feFlood flood-opacity="0" result="BackgroundImageFix"/>
<feBlend mode="normal" in="SourceGraphic" in2="BackgroundImageFix" result="shape"/>
<feGaussianBlur stdDeviation="2" result="effect1_foregroundBlur_322_8273"/>
</filter>
<filter id="filter2_d_322_8273" x="54.8086" y="12.6914" width="116.232" height="18.543" filterUnits="userSpaceOnUse" color-interpolation-filters="sRGB">
<feFlood flood-opacity="0" result="BackgroundImageFix"/>
<feColorMatrix in="SourceAlpha" type="matrix" values="0 0 0 0 0 0 0 0 0 0 0 0 0 0 0 0 0 0 127 0" result="hardAlpha"/>
<feOffset dy="1"/>
<feComposite in2="hardAlpha" operator="out"/>
<feColorMatrix type="matrix" values="0 0 0 0 0 0 0 0 0 0 0 0 0 0 0 0 0 0 0.45 0"/>
<feBlend mode="normal" in2="BackgroundImageFix" result="effect1_dropShadow_322_8273"/>
<feBlend mode="normal" in="SourceGraphic" in2="effect1_dropShadow_322_8273" result="shape"/>
</filter>
</defs>
</svg>
