<svg width="28" height="24" viewBox="0 0 28 24" fill="none" xmlns="http://www.w3.org/2000/svg">
<path d="M21.8864 1.08617C22.5133 0.836154 23.229 0.976163 23.7096 1.43119L27.053 4.63141C27.3665 4.93143 27.5441 5.33646 27.5441 5.76149C27.5441 6.18652 27.3665 6.59154 27.053 6.89156L23.7096 10.0918C23.229 10.5518 22.5133 10.6868 21.8864 10.4368C21.2595 10.1868 20.852 9.60675 20.852 8.95671V7.3566H19.1803C18.6526 7.3566 18.1563 7.59161 17.8429 7.99664L15.6279 10.8318L13.5382 8.16665L15.1681 6.08651C16.1137 4.87643 17.6026 4.16638 19.1803 4.16638H20.852V2.56627C20.852 1.92123 21.2595 1.33619 21.8864 1.08617ZM9.35892 13.502L11.4486 16.1672L9.81864 18.2473C8.87308 19.4574 7.3842 20.1675 5.80651 20.1675H2.46307C1.5384 20.1675 0.791351 19.4524 0.791351 18.5674C0.791351 17.6823 1.5384 16.9672 2.46307 16.9672H5.80651C6.33415 16.9672 6.83044 16.7322 7.14389 16.3272L9.35892 13.502ZM23.7044 22.9027C23.2238 23.3627 22.508 23.4977 21.8812 23.2477C21.2543 22.9977 20.8468 22.4176 20.8468 21.7676V20.1675H19.1751C17.5974 20.1675 16.1085 19.4574 15.1629 18.2473L7.14389 8.00664C6.83044 7.60161 6.33415 7.3666 5.80651 7.3666H2.46307C1.5384 7.3666 0.791351 6.65155 0.791351 5.76649C0.791351 4.88143 1.5384 4.16638 2.46307 4.16638H5.80651C7.3842 4.16638 8.87308 4.87643 9.81864 6.08651L17.8429 16.3272C18.1563 16.7322 18.6526 16.9672 19.1803 16.9672H20.852V15.3671C20.852 14.7221 21.2595 14.1371 21.8864 13.887C22.5133 13.637 23.229 13.777 23.7096 14.2321L27.053 17.4323C27.3665 17.7323 27.5441 18.1373 27.5441 18.5624C27.5441 18.9874 27.3665 19.3924 27.053 19.6924L23.7096 22.8927L23.7044 22.9027Z" fill="#1CFFBF"/>
</svg>
